<svg xmlns="http://www.w3.org/2000/svg"
  viewBox="-118 -1118 1707 1237"
  fill="currentColor"
  aria-hidden="true">
  <path d="M1470.83-973.96L1444.79-973.96L1444.79-1000L1470.83-1000L1470.83-973.96M1444.79-968.75L1470.83-968.75L1470.83-942.71L1444.79-942.71L1444.79-968.75M1439.58-1000L1439.58-973.96L1413.54-973.96L1413.54-1000L1439.58-1000M1439.58-937.50L1439.58-911.46L1413.54-911.46L1413.54-937.50L1439.58-937.50M1444.79-906.25L1470.83-906.25L1470.83-879.17L1444.79-879.17L1444.79-906.25M1444.79-937.50L1470.83-937.50L1470.83-911.46L1444.79-911.46L1444.79-937.50M1439.58-968.75L1439.58-942.71L1413.54-942.71L1413.54-968.75L1439.58-968.75M1408.33-1000L1408.33-973.96L1382.29-973.96L1382.29-1000L1408.33-1000M1377.08-1000L1377.08-973.96L1351.04-973.96L1351.04-1000L1377.08-1000M1382.29-911.46L1382.29-937.50L1408.33-937.50L1408.33-911.46L1382.29-911.46M1377.08-937.50L1377.08-911.46L1351.04-911.46L1351.04-937.50L1377.08-937.50M1382.29-906.25L1408.33-906.25L1408.33-879.17L1382.29-879.17L1382.29-906.25M1408.33-942.71L1382.29-942.71L1382.29-968.75L1408.33-968.75L1408.33-942.71M1377.08-968.75L1377.08-942.71L1351.04-942.71L1351.04-968.75L1377.08-968.75M1413.54-847.92L1413.54-873.96L1439.58-873.96L1439.58-847.92L1413.54-847.92M1408.33-847.92L1382.29-847.92L1382.29-873.96L1408.33-873.96L1408.33-847.92M1377.08-873.96L1377.08-847.92L1351.04-847.92L1351.04-873.96L1377.08-873.96M1444.79-873.96L1470.83-873.96L1470.83-847.92L1444.79-847.92L1444.79-873.96M1413.54-879.17L1413.54-906.25L1439.58-906.25L1439.58-879.17L1413.54-879.17M1377.08-906.25L1377.08-879.17L1351.04-879.17L1351.04-906.25L1377.08-906.25M1377.08-685.42L1377.08-659.37L1351.04-659.37L1351.04-685.42L1377.08-685.42M1377.08-654.17L1377.08-628.12L1351.04-628.12L1351.04-654.17L1377.08-654.17M1377.08-717.71L1377.08-690.62L1351.04-690.62L1351.04-717.71L1377.08-717.71M1439.58-309.37L1439.58-282.29L1413.54-282.29L1413.54-309.37L1439.58-309.37M1377.08-309.37L1377.08-282.29L1351.04-282.29L1351.04-309.37L1377.08-309.37M1382.29-282.29L1382.29-309.37L1408.33-309.37L1408.33-282.29L1382.29-282.29M1413.54-251.04L1413.54-277.08L1439.58-277.08L1439.58-251.04L1413.54-251.04M1377.08-277.08L1377.08-251.04L1351.04-251.04L1351.04-277.08L1377.08-277.08M1377.08-214.58L1377.08-188.54L1351.04-188.54L1351.04-214.58L1377.08-214.58M1377.08-245.83L1377.08-219.79L1351.04-219.79L1351.04-245.83L1377.08-245.83M1470.83-277.08L1470.83-251.04L1444.79-251.04L1444.79-277.08L1470.83-277.08M1439.58-152.08L1439.58-126.04L1413.54-126.04L1413.54-152.08L1439.58-152.08M1444.79-88.54L1470.83-88.54L1470.83-62.50L1444.79-62.50L1444.79-88.54M1470.83-120.83L1470.83-93.75L1444.79-93.75L1444.79-120.83L1470.83-120.83M1439.58-120.83L1439.58-93.75L1413.54-93.75L1413.54-120.83L1439.58-120.83M1408.33-152.08L1408.33-126.04L1382.29-126.04L1382.29-152.08L1408.33-152.08M1377.08-152.08L1377.08-126.04L1351.04-126.04L1351.04-152.08L1377.08-152.08M1413.54-31.25L1413.54-57.29L1439.58-57.29L1439.58-31.25L1413.54-31.25M1408.33-57.29L1408.33-31.25L1382.29-31.25L1382.29-57.29L1408.33-57.29M1377.08-57.29L1377.08-31.25L1351.04-31.25L1351.04-57.29L1377.08-57.29M1413.54 0L1413.54-26.04L1439.58-26.04L1439.58 0L1413.54 0M1408.33-26.04L1408.33 0L1382.29 0L1382.29-26.04L1408.33-26.04M1377.08-26.04L1377.08 0L1351.04 0L1351.04-26.04L1377.08-26.04M1413.54-88.54L1439.58-88.54L1439.58-62.50L1413.54-62.50L1413.54-88.54M1377.08-88.54L1377.08-62.50L1351.04-62.50L1351.04-88.54L1377.08-88.54M1377.08-183.33L1377.08-157.29L1351.04-157.29L1351.04-183.33L1377.08-183.33M1319.79-968.75L1345.83-968.75L1345.83-942.71L1319.79-942.71L1319.79-968.75M1345.83-973.96L1319.79-973.96L1319.79-1000L1345.83-1000L1345.83-973.96M1314.58-1000L1314.58-973.96L1287.50-973.96L1287.50-1000L1314.58-1000M1282.29-1000L1282.29-973.96L1256.25-973.96L1256.25-1000L1282.29-1000M1282.29-937.50L1282.29-911.46L1256.25-911.46L1256.25-937.50L1282.29-937.50M1287.50-911.46L1287.50-937.50L1314.58-937.50L1314.58-911.46L1287.50-911.46M1345.83-911.46L1319.79-911.46L1319.79-937.50L1345.83-937.50L1345.83-911.46M1319.79-906.25L1345.83-906.25L1345.83-879.17L1319.79-879.17L1319.79-906.25M1287.50-906.25L1314.58-906.25L1314.58-879.17L1287.50-879.17L1287.50-906.25M1287.50-942.71L1287.50-968.75L1314.58-968.75L1314.58-942.71L1287.50-942.71M1282.29-968.75L1282.29-942.71L1256.25-942.71L1256.25-968.75L1282.29-968.75M1188.54-937.50L1188.54-911.46L1162.50-911.46L1162.50-937.50L1188.54-937.50M1188.54-842.71L1188.54-816.67L1162.50-816.67L1162.50-842.71L1188.54-842.71M1256.25-816.67L1256.25-842.71L1282.29-842.71L1282.29-816.67L1256.25-816.67M1251.04-816.67L1225-816.67L1225-842.71L1251.04-842.71L1251.04-816.67M1225-811.46L1251.04-811.46L1251.04-785.42L1225-785.42L1225-811.46M1188.54-873.96L1188.54-847.92L1162.50-847.92L1162.50-873.96L1188.54-873.96M1256.25-847.92L1256.25-873.96L1282.29-873.96L1282.29-847.92L1256.25-847.92M1319.79-873.96L1345.83-873.96L1345.83-847.92L1319.79-847.92L1319.79-873.96M1287.50-816.67L1287.50-842.71L1314.58-842.71L1314.58-816.67L1287.50-816.67M1287.50-811.46L1314.58-811.46L1314.58-785.42L1287.50-785.42L1287.50-811.46M1314.58-873.96L1314.58-847.92L1287.50-847.92L1287.50-873.96L1314.58-873.96M1188.54-906.25L1188.54-879.17L1162.50-879.17L1162.50-906.25L1188.54-906.25M1256.25-811.46L1282.29-811.46L1282.29-785.42L1256.25-785.42L1256.25-811.46M1256.25-879.17L1256.25-906.25L1282.29-906.25L1282.29-879.17L1256.25-879.17M1098.96-968.75L1126.04-968.75L1126.04-942.71L1098.96-942.71L1098.96-968.75M1126.04-973.96L1098.96-973.96L1098.96-1000L1126.04-1000L1126.04-973.96M1131.25-911.46L1131.25-937.50L1157.29-937.50L1157.29-911.46L1131.25-911.46M1098.96-906.25L1126.04-906.25L1126.04-879.17L1098.96-879.17L1098.96-906.25M1126.04-911.46L1098.96-911.46L1098.96-937.50L1126.04-937.50L1126.04-911.46M1131.25-906.25L1157.29-906.25L1157.29-879.17L1131.25-879.17L1131.25-906.25M1131.25-942.71L1131.25-968.75L1157.29-968.75L1157.29-942.71L1131.25-942.71M1062.50-1000L1062.50-973.96L1036.46-973.96L1036.46-1000L1062.50-1000M1067.71-968.75L1093.75-968.75L1093.75-942.71L1067.71-942.71L1067.71-968.75M1093.75-973.96L1067.71-973.96L1067.71-1000L1093.75-1000L1093.75-973.96M1031.25-1000L1031.25-973.96L1005.21-973.96L1005.21-1000L1031.25-1000M1036.46-911.46L1036.46-937.50L1062.50-937.50L1062.50-911.46L1036.46-911.46M1031.25-937.50L1031.25-911.46L1005.21-911.46L1005.21-937.50L1031.25-937.50M1067.71-906.25L1093.75-906.25L1093.75-879.17L1067.71-879.17L1067.71-906.25M1093.75-911.46L1067.71-911.46L1067.71-937.50L1093.75-937.50L1093.75-911.46M1031.25-968.75L1031.25-942.71L1005.21-942.71L1005.21-968.75L1031.25-968.75M1036.46-906.25L1062.50-906.25L1062.50-879.17L1036.46-879.17L1036.46-906.25M1062.50-942.71L1036.46-942.71L1036.46-968.75L1062.50-968.75L1062.50-942.71M1067.71-873.96L1093.75-873.96L1093.75-847.92L1067.71-847.92L1067.71-873.96M1031.25-842.71L1031.25-816.67L1005.21-816.67L1005.21-842.71L1031.25-842.71M1031.25-873.96L1031.25-847.92L1005.21-847.92L1005.21-873.96L1031.25-873.96M1062.50-847.92L1036.46-847.92L1036.46-873.96L1062.50-873.96L1062.50-847.92M1098.96-873.96L1126.04-873.96L1126.04-847.92L1098.96-847.92L1098.96-873.96M1131.25-816.67L1131.25-842.71L1157.29-842.71L1157.29-816.67L1131.25-816.67M1098.96-811.46L1126.04-811.46L1126.04-785.42L1098.96-785.42L1098.96-811.46M1126.04-816.67L1098.96-816.67L1098.96-842.71L1126.04-842.71L1126.04-816.67M1131.25-811.46L1157.29-811.46L1157.29-785.42L1131.25-785.42L1131.25-811.46M1157.29-873.96L1157.29-847.92L1131.25-847.92L1131.25-873.96L1157.29-873.96M1031.25-906.25L1031.25-879.17L1005.21-879.17L1005.21-906.25L1031.25-906.25M1162.50-754.17L1162.50-780.21L1188.54-780.21L1188.54-754.17L1162.50-754.17M1157.29-780.21L1157.29-754.17L1131.25-754.17L1131.25-780.21L1157.29-780.21M1126.04-754.17L1098.96-754.17L1098.96-780.21L1126.04-780.21L1126.04-754.17M1031.25-780.21L1031.25-754.17L1005.21-754.17L1005.21-780.21L1031.25-780.21M1031.25-748.96L1031.25-722.92L1005.21-722.92L1005.21-748.96L1031.25-748.96M1031.25-717.71L1031.25-690.62L1005.21-690.62L1005.21-717.71L1031.25-717.71M1314.58-780.21L1314.58-754.17L1287.50-754.17L1287.50-780.21L1314.58-780.21M1282.29-780.21L1282.29-754.17L1256.25-754.17L1256.25-780.21L1282.29-780.21M1319.79-717.71L1345.83-717.71L1345.83-690.62L1319.79-690.62L1319.79-717.71M1287.50-717.71L1314.58-717.71L1314.58-690.62L1287.50-690.62L1287.50-717.71M1287.50-722.92L1287.50-748.96L1314.58-748.96L1314.58-722.92L1287.50-722.92M1282.29-748.96L1282.29-722.92L1256.25-722.92L1256.25-748.96L1282.29-748.96M1225-748.96L1251.04-748.96L1251.04-722.92L1225-722.92L1225-748.96M1251.04-754.17L1225-754.17L1225-780.21L1251.04-780.21L1251.04-754.17M1225-717.71L1251.04-717.71L1251.04-690.62L1225-690.62L1225-717.71M1256.25-659.37L1256.25-685.42L1282.29-685.42L1282.29-659.37L1256.25-659.37M1251.04-659.37L1225-659.37L1225-685.42L1251.04-685.42L1251.04-659.37M1225-654.17L1251.04-654.17L1251.04-628.12L1225-628.12L1225-654.17M1193.75-654.17L1219.79-654.17L1219.79-628.12L1193.75-628.12L1193.75-654.17M1219.79-659.37L1193.75-659.37L1193.75-685.42L1219.79-685.42L1219.79-659.37M1219.79-596.87L1193.75-596.87L1193.75-622.92L1219.79-622.92L1219.79-596.87M1193.75-591.67L1219.79-591.67L1219.79-565.62L1193.75-565.62L1193.75-591.67M1251.04-596.87L1225-596.87L1225-622.92L1251.04-622.92L1251.04-596.87M1225-591.67L1251.04-591.67L1251.04-565.62L1225-565.62L1225-591.67M1256.25-628.12L1256.25-654.17L1282.29-654.17L1282.29-628.12L1256.25-628.12M1319.79-654.17L1345.83-654.17L1345.83-628.12L1319.79-628.12L1319.79-654.17M1345.83-659.37L1319.79-659.37L1319.79-685.42L1345.83-685.42L1345.83-659.37M1314.58-685.42L1314.58-659.37L1287.50-659.37L1287.50-685.42L1314.58-685.42M1287.50-628.12L1287.50-654.17L1314.58-654.17L1314.58-628.12L1287.50-628.12M1256.25-690.62L1256.25-717.71L1282.29-717.71L1282.29-690.62L1256.25-690.62M1162.50-785.42L1162.50-811.46L1188.54-811.46L1188.54-785.42L1162.50-785.42M1031.25-811.46L1031.25-785.42L1005.21-785.42L1005.21-811.46L1031.25-811.46M973.96-968.75LNaN-968.75LNaN-942.71L973.96-942.71L973.96-968.75M942.71-906.25L968.75-906.25L968.75-879.17L942.71-879.17L942.71-906.25M973.96-906.25LNaN-906.25LNaN-879.17L973.96-879.17L973.96-906.25MNaN-911.46L973.96-911.46L973.96-937.50LNaN-937.50LNaN-911.46M842.71-842.71L842.71-816.67L816.67-816.67L816.67-842.71L842.71-842.71M973.96-873.96LNaN-873.96LNaN-847.92L973.96-847.92L973.96-873.96M942.71-873.96L968.75-873.96L968.75-847.92L942.71-847.92L942.71-873.96M942.71-811.46L968.75-811.46L968.75-785.42L942.71-785.42L942.71-811.46M968.75-816.67L942.71-816.67L942.71-842.71L968.75-842.71L968.75-816.67M973.96-811.46LNaN-811.46LNaN-785.42L973.96-785.42L973.96-811.46MNaN-816.67L973.96-816.67L973.96-842.71LNaN-842.71LNaN-816.67M780.21-1000L780.21-973.96L754.17-973.96L754.17-1000L780.21-1000M780.21-937.50L780.21-911.46L754.17-911.46L754.17-937.50L780.21-937.50M785.42-906.25L811.46-906.25L811.46-879.17L785.42-879.17L785.42-906.25M780.21-968.75L780.21-942.71L754.17-942.71L754.17-968.75L780.21-968.75M717.71-1000L717.71-973.96L690.63-973.96L690.63-1000L717.71-1000M722.92-968.75L748.96-968.75L748.96-942.71L722.92-942.71L722.92-968.75M748.96-973.96L722.92-973.96L722.92-1000L748.96-1000L748.96-973.96M690.63-911.46L690.63-937.50L717.71-937.50L717.71-911.46L690.63-911.46M722.92-906.25L748.96-906.25L748.96-879.17L722.92-879.17L722.92-906.25M748.96-911.46L722.92-911.46L722.92-937.50L748.96-937.50L748.96-911.46M690.63-906.25L717.71-906.25L717.71-879.17L690.63-879.17L690.63-906.25M717.71-968.75L717.71-942.71L690.63-942.71L690.63-968.75L717.71-968.75M722.92-873.96L748.96-873.96L748.96-847.92L722.92-847.92L722.92-873.96M690.63-816.67L690.63-842.71L717.71-842.71L717.71-816.67L690.63-816.67M685.42-842.71L685.42-816.67L659.38-816.67L659.38-842.71L685.42-842.71M722.92-811.46L748.96-811.46L748.96-785.42L722.92-785.42L722.92-811.46M748.96-816.67L722.92-816.67L722.92-842.71L748.96-842.71L748.96-816.67M754.17-816.67L754.17-842.71L780.21-842.71L780.21-816.67L754.17-816.67M690.63-811.46L717.71-811.46L717.71-785.42L690.63-785.42L690.63-811.46M717.71-873.96L717.71-847.92L690.63-847.92L690.63-873.96L717.71-873.96M754.17-847.92L754.17-873.96L780.21-873.96L780.21-847.92L754.17-847.92M685.42-873.96L685.42-847.92L659.38-847.92L659.38-873.96L685.42-873.96M785.42-816.67L785.42-842.71L811.46-842.71L811.46-816.67L785.42-816.67M785.42-811.46L811.46-811.46L811.46-785.42L785.42-785.42L785.42-811.46M811.46-847.92L785.42-847.92L785.42-873.96L811.46-873.96L811.46-847.92M754.17-811.46L780.21-811.46L780.21-785.42L754.17-785.42L754.17-811.46M754.17-879.17L754.17-906.25L780.21-906.25L780.21-879.17L754.17-879.17M685.42-906.25L685.42-879.17L659.38-879.17L659.38-906.25L685.42-906.25M811.46-780.21L811.46-754.17L785.42-754.17L785.42-780.21L811.46-780.21M816.67-754.17L816.67-780.21L842.71-780.21L842.71-754.17L816.67-754.17M780.21-780.21L780.21-754.17L754.17-754.17L754.17-780.21L780.21-780.21M816.67-722.92L816.67-748.96L842.71-748.96L842.71-722.92L816.67-722.92M785.42-717.71L811.46-717.71L811.46-690.62L785.42-690.62L785.42-717.71M811.46-722.92L785.42-722.92L785.42-748.96L811.46-748.96L811.46-722.92M717.71-780.21L717.71-754.17L690.63-754.17L690.63-780.21L717.71-780.21M722.92-748.96L748.96-748.96L748.96-722.92L722.92-722.92L722.92-748.96M748.96-754.17L722.92-754.17L722.92-780.21L748.96-780.21L748.96-754.17M685.42-780.21L685.42-754.17L659.38-754.17L659.38-780.21L685.42-780.21M722.92-717.71L748.96-717.71L748.96-690.62L722.92-690.62L722.92-717.71M685.42-748.96L685.42-722.92L659.38-722.92L659.38-748.96L685.42-748.96M717.71-685.42L717.71-659.37L690.63-659.37L690.63-685.42L717.71-685.42M722.92-654.17L748.96-654.17L748.96-628.12L722.92-628.12L722.92-654.17M748.96-659.37L722.92-659.37L722.92-685.42L748.96-685.42L748.96-659.37M754.17-659.37L754.17-685.42L780.21-685.42L780.21-659.37L754.17-659.37M685.42-685.42L685.42-659.37L659.38-659.37L659.38-685.42L685.42-685.42M690.63-596.87L690.63-622.92L717.71-622.92L717.71-596.87L690.63-596.87M685.42-622.92L685.42-596.87L659.38-596.87L659.38-622.92L685.42-622.92M748.96-596.87L722.92-596.87L722.92-622.92L748.96-622.92L748.96-596.87M754.17-596.87L754.17-622.92L780.21-622.92L780.21-596.87L754.17-596.87M690.63-591.67L717.71-591.67L717.71-565.62L690.63-565.62L690.63-591.67M717.71-654.17L717.71-628.12L690.63-628.12L690.63-654.17L717.71-654.17M754.17-628.12L754.17-654.17L780.21-654.17L780.21-628.12L754.17-628.12M685.42-654.17L685.42-628.12L659.38-628.12L659.38-654.17L685.42-654.17M811.46-685.42L811.46-659.37L785.42-659.37L785.42-685.42L811.46-685.42M816.67-659.37L816.67-685.42L842.71-685.42L842.71-659.37L816.67-659.37M785.42-596.87L785.42-622.92L811.46-622.92L811.46-596.87L785.42-596.87M785.42-591.67L811.46-591.67L811.46-565.62L785.42-565.62L785.42-591.67M811.46-628.12L785.42-628.12L785.42-654.17L811.46-654.17L811.46-628.12M754.17-591.67L780.21-591.67L780.21-565.62L754.17-565.62L754.17-591.67M816.67-690.62L816.67-717.71L842.71-717.71L842.71-690.62L816.67-690.62M685.42-717.71L685.42-690.62L659.38-690.62L659.38-717.71L685.42-717.71MNaN-754.17L973.96-754.17L973.96-780.21LNaN-780.21LNaN-754.17M973.96-748.96LNaN-748.96LNaN-722.92L973.96-722.92L973.96-748.96M968.75-754.17L942.71-754.17L942.71-780.21L968.75-780.21L968.75-754.17M942.71-748.96L968.75-748.96L968.75-722.92L942.71-722.92L942.71-748.96M942.71-717.71L968.75-717.71L968.75-690.62L942.71-690.62L942.71-717.71M973.96-717.71LNaN-717.71LNaN-690.62L973.96-690.62L973.96-717.71M911.46-659.37L911.46-685.42L937.50-685.42L937.50-659.37L911.46-659.37M911.46-596.87L911.46-622.92L937.50-622.92L937.50-596.87L911.46-596.87M911.46-628.12L911.46-654.17L937.50-654.17L937.50-628.12L911.46-628.12MNaN-659.37L973.96-659.37L973.96-685.42LNaN-685.42LNaN-659.37M973.96-654.17LNaN-654.17LNaN-628.12L973.96-628.12L973.96-654.17M942.71-654.17L968.75-654.17L968.75-628.12L942.71-628.12L942.71-654.17M968.75-659.37L942.71-659.37L942.71-685.42L968.75-685.42L968.75-659.37M942.71-622.92L968.75-622.92L968.75-596.87L942.71-596.87L942.71-622.92M942.71-591.67L968.75-591.67L968.75-565.62L942.71-565.62L942.71-591.67MNaN-596.87L973.96-596.87L973.96-622.92LNaN-622.92LNaN-596.87M973.96-591.67LNaN-591.67LNaN-565.62L973.96-565.62L973.96-591.67M911.46-591.67L937.50-591.67L937.50-565.62L911.46-565.62L911.46-591.67M816.67-591.67L842.71-591.67L842.71-565.62L816.67-565.62L816.67-591.67M842.71-811.46L842.71-785.42L816.67-785.42L816.67-811.46L842.71-811.46M685.42-811.46L685.42-785.42L659.38-785.42L659.38-811.46L685.42-811.46M973.96-560.42LNaN-560.42LNaN-534.37L973.96-534.37L973.96-560.42M942.71-560.42L968.75-560.42L968.75-534.37L942.71-534.37L942.71-560.42M937.50-529.17L937.50-503.13L911.46-503.13L911.46-529.17L937.50-529.17M942.71-529.17L968.75-529.17L968.75-503.13L942.71-503.13L942.71-529.17M942.71-496.88L968.75-496.88L968.75-470.83L942.71-470.83L942.71-496.88MNaN-503.13L973.96-503.13L973.96-529.17LNaN-529.17LNaN-503.13M973.96-496.88LNaN-496.88LNaN-470.83L973.96-470.83L973.96-496.88M937.50-560.42L937.50-534.37L911.46-534.37L911.46-560.42L937.50-560.42M842.71-529.17L842.71-503.13L816.67-503.13L816.67-529.17L842.71-529.17M847.92-496.88L873.96-496.88L873.96-470.83L847.92-470.83L847.92-496.88M842.71-560.42L842.71-534.37L816.67-534.37L816.67-560.42L842.71-560.42M842.71-465.63L842.71-439.58L816.67-439.58L816.67-465.63L842.71-465.63MNaN-439.58L973.96-439.58L973.96-465.63LNaN-465.63LNaN-439.58M1005.21-439.58L1005.21-465.63L1031.25-465.63L1031.25-439.58L1005.21-439.58M968.75-439.58L942.71-439.58L942.71-465.63L968.75-465.63L968.75-439.58M973.96-434.38LNaN-434.38LNaN-408.33L973.96-408.33L973.96-434.38M973.96-403.13LNaN-403.13LNaN-377.08L973.96-377.08L973.96-403.13M1005.21-408.33L1005.21-434.38L1031.25-434.38L1031.25-408.33L1005.21-408.33M842.71-496.88L842.71-470.83L816.67-470.83L816.67-496.88L842.71-496.88M937.50-496.88L937.50-470.83L911.46-470.83L911.46-496.88L937.50-496.88M1005.21-470.83L1005.21-496.88L1031.25-496.88L1031.25-470.83L1005.21-470.83M785.42-503.13L785.42-529.17L811.46-529.17L811.46-503.13L785.42-503.13M785.42-496.88L811.46-496.88L811.46-470.83L785.42-470.83L785.42-496.88M780.21-560.42L780.21-534.37L754.17-534.37L754.17-560.42L780.21-560.42M811.46-560.42L811.46-534.37L785.42-534.37L785.42-560.42L811.46-560.42M685.42-529.17L685.42-503.13L659.38-503.13L659.38-529.17L685.42-529.17M690.63-496.88L717.71-496.88L717.71-470.83L690.63-470.83L690.63-496.88M685.42-560.42L685.42-534.37L659.38-534.37L659.38-560.42L685.42-560.42M717.71-560.42L717.71-534.37L690.63-534.37L690.63-560.42L717.71-560.42M717.71-465.63L717.71-439.58L690.63-439.58L690.63-465.63L717.71-465.63M754.17-439.58L754.17-465.63L780.21-465.63L780.21-439.58L754.17-439.58M685.42-465.63L685.42-439.58L659.38-439.58L659.38-465.63L685.42-465.63M690.63-408.33L690.63-434.38L717.71-434.38L717.71-408.33L690.63-408.33M685.42-434.38L685.42-408.33L659.38-408.33L659.38-434.38L685.42-434.38M754.17-408.33L754.17-434.38L780.21-434.38L780.21-408.33L754.17-408.33M690.63-403.13L717.71-403.13L717.71-377.08L690.63-377.08L690.63-403.13M811.46-465.63L811.46-439.58L785.42-439.58L785.42-465.63L811.46-465.63M785.42-408.33L785.42-434.38L811.46-434.38L811.46-408.33L785.42-408.33M785.42-403.13L811.46-403.13L811.46-377.08L785.42-377.08L785.42-403.13M754.17-403.13L780.21-403.13L780.21-377.08L754.17-377.08L754.17-403.13M685.42-496.88L685.42-470.83L659.38-470.83L659.38-496.88L685.42-496.88M754.17-470.83L754.17-496.88L780.21-496.88L780.21-470.83L754.17-470.83M785.42-282.29L785.42-309.37L811.46-309.37L811.46-282.29L785.42-282.29M780.21-309.37L780.21-282.29L754.17-282.29L754.17-309.37L780.21-309.37M816.67-282.29L816.67-309.37L842.71-309.37L842.71-282.29L816.67-282.29M685.42-309.37L685.42-282.29L659.38-282.29L659.38-309.37L685.42-309.37M754.17-251.04L754.17-277.08L780.21-277.08L780.21-251.04L754.17-251.04M717.71-277.08L717.71-251.04L690.63-251.04L690.63-277.08L717.71-277.08M685.42-277.08L685.42-251.04L659.38-251.04L659.38-277.08L685.42-277.08M685.42-214.58L685.42-188.54L659.38-188.54L659.38-214.58L685.42-214.58M690.63-188.54L690.63-214.58L717.71-214.58L717.71-188.54L690.63-188.54M754.17-188.54L754.17-214.58L780.21-214.58L780.21-188.54L754.17-188.54M685.42-245.83L685.42-219.79L659.38-219.79L659.38-245.83L685.42-245.83M754.17-219.79L754.17-245.83L780.21-245.83L780.21-219.79L754.17-219.79M690.63-245.83L717.71-245.83L717.71-219.79L690.63-219.79L690.63-245.83M690.63-183.33L717.71-183.33L717.71-157.29L690.63-157.29L690.63-183.33M816.67-251.04L816.67-277.08L842.71-277.08L842.71-251.04L816.67-251.04M811.46-277.08L811.46-251.04L785.42-251.04L785.42-277.08L811.46-277.08M785.42-188.54L785.42-214.58L811.46-214.58L811.46-188.54L785.42-188.54M785.42-245.83L811.46-245.83L811.46-219.79L785.42-219.79L785.42-245.83M785.42-183.33L811.46-183.33L811.46-157.29L785.42-157.29L785.42-183.33M754.17-183.33L780.21-183.33L780.21-157.29L754.17-157.29L754.17-183.33M942.71-282.29L942.71-309.37L968.75-309.37L968.75-282.29L942.71-282.29MNaN-282.29L973.96-282.29L973.96-309.37LNaN-309.37LNaN-282.29M1005.21-282.29L1005.21-309.37L1031.25-309.37L1031.25-282.29L1005.21-282.29M873.96-282.29L847.92-282.29L847.92-309.37L873.96-309.37L873.96-282.29M906.25-277.08L906.25-251.04L879.17-251.04L879.17-277.08L906.25-277.08M847.92-245.83L873.96-245.83L873.96-219.79L847.92-219.79L847.92-245.83M847.92-251.04L847.92-277.08L873.96-277.08L873.96-251.04L847.92-251.04M847.92-183.33L873.96-183.33L873.96-157.29L847.92-157.29L847.92-183.33M873.96-214.58L873.96-188.54L847.92-188.54L847.92-214.58L873.96-214.58M879.17-188.54L879.17-214.58L906.25-214.58L906.25-188.54L879.17-188.54M879.17-245.83L906.25-245.83L906.25-219.79L879.17-219.79L879.17-245.83M879.17-183.33L906.25-183.33L906.25-157.29L879.17-157.29L879.17-183.33M973.96-245.83LNaN-245.83LNaN-219.79L973.96-219.79L973.96-245.83MNaN-277.08LNaN-251.04L973.96-251.04L973.96-277.08LNaN-277.08M942.71-245.83L968.75-245.83L968.75-219.79L942.71-219.79L942.71-245.83M968.75-277.08L968.75-251.04L942.71-251.04L942.71-277.08L968.75-277.08M942.71-183.33L968.75-183.33L968.75-157.29L942.71-157.29L942.71-183.33M968.75-214.58L968.75-188.54L942.71-188.54L942.71-214.58L968.75-214.58M973.96-183.33LNaN-183.33LNaN-157.29L973.96-157.29L973.96-183.33MNaN-214.58LNaN-188.54L973.96-188.54L973.96-214.58LNaN-214.58M685.42-403.13L685.42-377.08L659.38-377.08L659.38-403.13L685.42-403.13M1005.21-377.08L1005.21-403.13L1031.25-403.13L1031.25-377.08L1005.21-377.08M1319.79-496.88L1345.83-496.88L1345.83-470.83L1319.79-470.83L1319.79-496.88M1287.50-496.88L1314.58-496.88L1314.58-470.83L1287.50-470.83L1287.50-496.88M1225-560.42L1251.04-560.42L1251.04-534.37L1225-534.37L1225-560.42M1193.75-560.42L1219.79-560.42L1219.79-534.37L1193.75-534.37L1193.75-560.42M1188.54-529.17L1188.54-503.13L1162.50-503.13L1162.50-529.17L1188.54-529.17M1219.79-503.13L1193.75-503.13L1193.75-529.17L1219.79-529.17L1219.79-503.13M1193.75-496.88L1219.79-496.88L1219.79-470.83L1193.75-470.83L1193.75-496.88M1251.04-503.13L1225-503.13L1225-529.17L1251.04-529.17L1251.04-503.13M1225-496.88L1251.04-496.88L1251.04-470.83L1225-470.83L1225-496.88M1256.25-439.58L1256.25-465.63L1282.29-465.63L1282.29-439.58L1256.25-439.58M1251.04-439.58L1225-439.58L1225-465.63L1251.04-465.63L1251.04-439.58M1188.54-465.63L1188.54-439.58L1162.50-439.58L1162.50-465.63L1188.54-465.63M1219.79-439.58L1193.75-439.58L1193.75-465.63L1219.79-465.63L1219.79-439.58M1188.54-434.38L1188.54-408.33L1162.50-408.33L1162.50-434.38L1188.54-434.38M1219.79-408.33L1193.75-408.33L1193.75-434.38L1219.79-434.38L1219.79-408.33M1193.75-403.13L1219.79-403.13L1219.79-377.08L1193.75-377.08L1193.75-403.13M1256.25-408.33L1256.25-434.38L1282.29-434.38L1282.29-408.33L1256.25-408.33M1225-434.38L1251.04-434.38L1251.04-408.33L1225-408.33L1225-434.38M1225-403.13L1251.04-403.13L1251.04-377.08L1225-377.08L1225-403.13M1345.83-439.58L1319.79-439.58L1319.79-465.63L1345.83-465.63L1345.83-439.58M1314.58-465.63L1314.58-439.58L1287.50-439.58L1287.50-465.63L1314.58-465.63M1287.50-408.33L1287.50-434.38L1314.58-434.38L1314.58-408.33L1287.50-408.33M1345.83-408.33L1319.79-408.33L1319.79-434.38L1345.83-434.38L1345.83-408.33M1319.79-403.13L1345.83-403.13L1345.83-377.08L1319.79-377.08L1319.79-403.13M1287.50-403.13L1314.58-403.13L1314.58-377.08L1287.50-377.08L1287.50-403.13M1256.25-403.13L1282.29-403.13L1282.29-377.08L1256.25-377.08L1256.25-403.13M1188.54-496.88L1188.54-470.83L1162.50-470.83L1162.50-496.88L1188.54-496.88M1256.25-470.83L1256.25-496.88L1282.29-496.88L1282.29-470.83L1256.25-470.83M1098.96-560.42L1126.04-560.42L1126.04-534.37L1098.96-534.37L1098.96-560.42M1126.04-503.13L1098.96-503.13L1098.96-529.17L1126.04-529.17L1126.04-503.13M1098.96-496.88L1126.04-496.88L1126.04-470.83L1098.96-470.83L1098.96-496.88M1067.71-560.42L1093.75-560.42L1093.75-534.37L1067.71-534.37L1067.71-560.42M1036.46-503.13L1036.46-529.17L1062.50-529.17L1062.50-503.13L1036.46-503.13M1093.75-503.13L1067.71-503.13L1067.71-529.17L1093.75-529.17L1093.75-503.13M1067.71-496.88L1093.75-496.88L1093.75-470.83L1067.71-470.83L1067.71-496.88M1062.50-534.37L1036.46-534.37L1036.46-560.42L1062.50-560.42L1062.50-534.37M1036.46-496.88L1062.50-496.88L1062.50-470.83L1036.46-470.83L1036.46-496.88M1062.50-465.63L1062.50-439.58L1036.46-439.58L1036.46-465.63L1062.50-465.63M1093.75-439.58L1067.71-439.58L1067.71-465.63L1093.75-465.63L1093.75-439.58M1036.46-408.33L1036.46-434.38L1062.50-434.38L1062.50-408.33L1036.46-408.33M1036.46-403.13L1062.50-403.13L1062.50-377.08L1036.46-377.08L1036.46-403.13M1162.50-282.29L1162.50-309.37L1188.54-309.37L1188.54-282.29L1162.50-282.29M1036.46-282.29L1036.46-309.37L1062.50-309.37L1062.50-282.29L1036.46-282.29M1067.71-282.29L1067.71-309.37L1093.75-309.37L1093.75-282.29L1067.71-282.29M1162.50-251.04L1162.50-277.08L1188.54-277.08L1188.54-251.04L1162.50-251.04M1157.29-277.08L1157.29-251.04L1131.25-251.04L1131.25-277.08L1157.29-277.08M1131.25-188.54L1131.25-214.58L1157.29-214.58L1157.29-188.54L1131.25-188.54M1162.50-188.54L1162.50-214.58L1188.54-214.58L1188.54-188.54L1162.50-188.54M1162.50-219.79L1162.50-245.83L1188.54-245.83L1188.54-219.79L1162.50-219.79M1131.25-245.83L1157.29-245.83L1157.29-219.79L1131.25-219.79L1131.25-245.83M1131.25-183.33L1157.29-183.33L1157.29-157.29L1131.25-157.29L1131.25-183.33M1219.79-282.29L1193.75-282.29L1193.75-309.37L1219.79-309.37L1219.79-282.29M1251.04-282.29L1225-282.29L1225-309.37L1251.04-309.37L1251.04-282.29M1225-245.83L1251.04-245.83L1251.04-219.79L1225-219.79L1225-245.83M1256.25-251.04L1256.25-277.08L1282.29-277.08L1282.29-251.04L1256.25-251.04M1225-251.04L1225-277.08L1251.04-277.08L1251.04-251.04L1225-251.04M1193.75-245.83L1219.79-245.83L1219.79-219.79L1193.75-219.79L1193.75-245.83M1219.79-277.08L1219.79-251.04L1193.75-251.04L1193.75-277.08L1219.79-277.08M1225-183.33L1251.04-183.33L1251.04-157.29L1225-157.29L1225-183.33M1251.04-214.58L1251.04-188.54L1225-188.54L1225-214.58L1251.04-214.58M1256.25-188.54L1256.25-214.58L1282.29-214.58L1282.29-188.54L1256.25-188.54M1256.25-219.79L1256.25-245.83L1282.29-245.83L1282.29-219.79L1256.25-219.79M1319.79-245.83L1345.83-245.83L1345.83-219.79L1319.79-219.79L1319.79-245.83M1345.83-277.08L1345.83-251.04L1319.79-251.04L1319.79-277.08L1345.83-277.08M1319.79-183.33L1345.83-183.33L1345.83-157.29L1319.79-157.29L1319.79-183.33M1345.83-214.58L1345.83-188.54L1319.79-188.54L1319.79-214.58L1345.83-214.58M1256.25-183.33L1282.29-183.33L1282.29-157.29L1256.25-157.29L1256.25-183.33M1162.50-377.08L1162.50-403.13L1188.54-403.13L1188.54-377.08L1162.50-377.08M1162.50-183.33L1188.54-183.33L1188.54-157.29L1162.50-157.29L1162.50-183.33M685.42-591.67L685.42-565.62L659.38-565.62L659.38-591.67L685.42-591.67M529.17-937.50L529.17-911.46L503.13-911.46L503.13-937.50L529.17-937.50M534.38-911.46L534.38-937.50L560.42-937.50L560.42-911.46L534.38-911.46M534.38-906.25L560.42-906.25L560.42-879.17L534.38-879.17L534.38-906.25M529.17-968.75L529.17-942.71L503.13-942.71L503.13-968.75L529.17-968.75M529.17-842.71L529.17-816.67L503.13-816.67L503.13-842.71L529.17-842.71M534.38-816.67L534.38-842.71L560.42-842.71L560.42-816.67L534.38-816.67M565.63-816.67L565.63-842.71L591.67-842.71L591.67-816.67L565.63-816.67M534.38-811.46L560.42-811.46L560.42-785.42L534.38-785.42L534.38-811.46M529.17-873.96L529.17-847.92L503.13-847.92L503.13-873.96L529.17-873.96M560.42-873.96L560.42-847.92L534.38-847.92L534.38-873.96L560.42-873.96M565.63-847.92L565.63-873.96L591.67-873.96L591.67-847.92L565.63-847.92M628.13-816.67L628.13-842.71L654.17-842.71L654.17-816.67L628.13-816.67M628.13-811.46L654.17-811.46L654.17-785.42L628.13-785.42L628.13-811.46M565.63-811.46L591.67-811.46L591.67-785.42L565.63-785.42L565.63-811.46M529.17-906.25L529.17-879.17L503.13-879.17L503.13-906.25L529.17-906.25M591.67-906.25L591.67-879.17L565.63-879.17L565.63-906.25L591.67-906.25M470.83-968.75L496.88-968.75L496.88-942.71L470.83-942.71L470.83-968.75M434.38-937.50L434.38-911.46L408.33-911.46L408.33-937.50L434.38-937.50M439.58-911.46L439.58-937.50L465.63-937.50L465.63-911.46L439.58-911.46M496.88-911.46L470.83-911.46L470.83-937.50L496.88-937.50L496.88-911.46M470.83-906.25L496.88-906.25L496.88-879.17L470.83-879.17L470.83-906.25M439.58-906.25L465.63-906.25L465.63-879.17L439.58-879.17L439.58-906.25M465.63-968.75L465.63-942.71L439.58-942.71L439.58-968.75L465.63-968.75M434.38-968.75L434.38-942.71L408.33-942.71L408.33-968.75L434.38-968.75M377.08-968.75L403.13-968.75L403.13-942.71L377.08-942.71L377.08-968.75M345.83-968.75L371.88-968.75L371.88-942.71L345.83-942.71L345.83-968.75M340.63-937.50L340.63-911.46L314.58-911.46L314.58-937.50L340.63-937.50M371.88-911.46L345.83-911.46L345.83-937.50L371.88-937.50L371.88-911.46M345.83-906.25L371.88-906.25L371.88-879.17L345.83-879.17L345.83-906.25M403.13-911.46L377.08-911.46L377.08-937.50L403.13-937.50L403.13-911.46M377.08-906.25L403.13-906.25L403.13-879.17L377.08-879.17L377.08-906.25M340.63-968.75L340.63-942.71L314.58-942.71L314.58-968.75L340.63-968.75M377.08-873.96L403.13-873.96L403.13-847.92L377.08-847.92L377.08-873.96M345.83-873.96L371.88-873.96L371.88-847.92L345.83-847.92L345.83-873.96M340.63-842.71L340.63-816.67L314.58-816.67L314.58-842.71L340.63-842.71M371.88-816.67L345.83-816.67L345.83-842.71L371.88-842.71L371.88-816.67M345.83-811.46L371.88-811.46L371.88-785.42L345.83-785.42L345.83-811.46M377.08-842.71L403.13-842.71L403.13-816.67L377.08-816.67L377.08-842.71M377.08-811.46L403.13-811.46L403.13-785.42L377.08-785.42L377.08-811.46M408.33-847.92L408.33-873.96L434.38-873.96L434.38-847.92L408.33-847.92M340.63-873.96L340.63-847.92L314.58-847.92L314.58-873.96L340.63-873.96M470.83-873.96L496.88-873.96L496.88-847.92L470.83-847.92L470.83-873.96M465.63-873.96L465.63-847.92L439.58-847.92L439.58-873.96L465.63-873.96M434.38-879.17L408.33-879.17L408.33-906.25L434.38-906.25L434.38-879.17M340.63-906.25L340.63-879.17L314.58-879.17L314.58-906.25L340.63-906.25M503.13-754.17L503.13-780.21L529.17-780.21L529.17-754.17L503.13-754.17M470.83-717.71L496.88-717.71L496.88-690.62L470.83-690.62L470.83-717.71M439.58-717.71L465.63-717.71L465.63-690.62L439.58-690.62L439.58-717.71M503.13-722.92L503.13-748.96L529.17-748.96L529.17-722.92L503.13-722.92M377.08-748.96L403.13-748.96L403.13-722.92L377.08-722.92L377.08-748.96M403.13-754.17L377.08-754.17L377.08-780.21L403.13-780.21L403.13-754.17M340.63-780.21L340.63-754.17L314.58-754.17L314.58-780.21L340.63-780.21M345.83-748.96L371.88-748.96L371.88-722.92L345.83-722.92L345.83-748.96M371.88-754.17L345.83-754.17L345.83-780.21L371.88-780.21L371.88-754.17M345.83-717.71L371.88-717.71L371.88-690.62L345.83-690.62L345.83-717.71M377.08-717.71L403.13-717.71L403.13-690.62L377.08-690.62L377.08-717.71M340.63-748.96L340.63-722.92L314.58-722.92L314.58-748.96L340.63-748.96M408.33-659.37L408.33-685.42L434.38-685.42L434.38-659.37L408.33-659.37M403.13-659.37L377.08-659.37L377.08-685.42L403.13-685.42L403.13-659.37M377.08-654.17L403.13-654.17L403.13-628.12L377.08-628.12L377.08-654.17M340.63-685.42L340.63-659.37L314.58-659.37L314.58-685.42L340.63-685.42M345.83-654.17L371.88-654.17L371.88-628.12L345.83-628.12L345.83-654.17M371.88-659.37L345.83-659.37L345.83-685.42L371.88-685.42L371.88-659.37M371.88-596.87L345.83-596.87L345.83-622.92L371.88-622.92L371.88-596.87M345.83-591.67L371.88-591.67L371.88-565.62L345.83-565.62L345.83-591.67M408.33-596.87L408.33-622.92L434.38-622.92L434.38-596.87L408.33-596.87M377.08-622.92L403.13-622.92L403.13-596.87L377.08-596.87L377.08-622.92M377.08-591.67L403.13-591.67L403.13-565.62L377.08-565.62L377.08-591.67M408.33-628.12L408.33-654.17L434.38-654.17L434.38-628.12L408.33-628.12M503.13-659.37L503.13-685.42L529.17-685.42L529.17-659.37L503.13-659.37M465.63-685.42L465.63-659.37L439.58-659.37L439.58-685.42L465.63-685.42M496.88-659.37L470.83-659.37L470.83-685.42L496.88-685.42L496.88-659.37M470.83-654.17L496.88-654.17L496.88-628.12L470.83-628.12L470.83-654.17M439.58-596.87L439.58-622.92L465.63-622.92L465.63-596.87L439.58-596.87M503.13-596.87L503.13-622.92L529.17-622.92L529.17-596.87L503.13-596.87M470.83-622.92L496.88-622.92L496.88-596.87L470.83-596.87L470.83-622.92M503.13-628.12L503.13-654.17L529.17-654.17L529.17-628.12L503.13-628.12M465.63-654.17L465.63-628.12L439.58-628.12L439.58-654.17L465.63-654.17M503.13-690.62L503.13-717.71L529.17-717.71L529.17-690.62L503.13-690.62M434.38-690.62L408.33-690.62L408.33-717.71L434.38-717.71L434.38-690.62M408.33-591.67L434.38-591.67L434.38-565.62L408.33-565.62L408.33-591.67M340.63-717.71L340.63-690.62L314.58-690.62L314.58-717.71L340.63-717.71M654.17-780.21L654.17-754.17L628.13-754.17L628.13-780.21L654.17-780.21M591.67-780.21L591.67-754.17L565.63-754.17L565.63-780.21L591.67-780.21M591.67-748.96L591.67-722.92L565.63-722.92L565.63-748.96L591.67-748.96M628.13-717.71L654.17-717.71L654.17-690.62L628.13-690.62L628.13-717.71M628.13-722.92L628.13-748.96L654.17-748.96L654.17-722.92L628.13-722.92M560.42-780.21L560.42-754.17L534.38-754.17L534.38-780.21L560.42-780.21M534.38-717.71L560.42-717.71L560.42-690.62L534.38-690.62L534.38-717.71M534.38-722.92L534.38-748.96L560.42-748.96L560.42-722.92L534.38-722.92M560.42-685.42L560.42-659.37L534.38-659.37L534.38-685.42L560.42-685.42M654.17-685.42L654.17-659.37L628.13-659.37L628.13-685.42L654.17-685.42M591.67-717.71L591.67-690.62L565.63-690.62L565.63-717.71L591.67-717.71M503.13-811.46L529.17-811.46L529.17-785.42L503.13-785.42L503.13-811.46M340.63-811.46L340.63-785.42L314.58-785.42L314.58-811.46L340.63-811.46M183.33-937.50L183.33-911.46L157.29-911.46L157.29-937.50L183.33-937.50M188.54-911.46L188.54-937.50L214.58-937.50L214.58-911.46L188.54-911.46M219.79-906.25L245.83-906.25L245.83-879.17L219.79-879.17L219.79-906.25M188.54-906.25L214.58-906.25L214.58-879.17L188.54-879.17L188.54-906.25M219.79-873.96L245.83-873.96L245.83-847.92L219.79-847.92L219.79-873.96M183.33-842.71L183.33-816.67L157.29-816.67L157.29-842.71L183.33-842.71M188.54-816.67L188.54-842.71L214.58-842.71L214.58-816.67L188.54-816.67M219.79-811.46L245.83-811.46L245.83-785.42L219.79-785.42L219.79-811.46M219.79-816.67L219.79-842.71L245.83-842.71L245.83-816.67L219.79-816.67M188.54-811.46L214.58-811.46L214.58-785.42L188.54-785.42L188.54-811.46M183.33-873.96L183.33-847.92L157.29-847.92L157.29-873.96L183.33-873.96M188.54-847.92L188.54-873.96L214.58-873.96L214.58-847.92L188.54-847.92M183.33-906.25L183.33-879.17L157.29-879.17L157.29-906.25L183.33-906.25M126.04-968.75L152.08-968.75L152.08-942.71L126.04-942.71L126.04-968.75M93.75-968.75L120.83-968.75L120.83-942.71L93.75-942.71L93.75-968.75M93.75-906.25L120.83-906.25L120.83-879.17L93.75-879.17L93.75-906.25M88.54-937.50L88.54-911.46L62.50-911.46L62.50-937.50L88.54-937.50M93.75-911.46L93.75-937.50L120.83-937.50L120.83-911.46L93.75-911.46M126.04-906.25L152.08-906.25L152.08-879.17L126.04-879.17L126.04-906.25M152.08-937.50L152.08-911.46L126.04-911.46L126.04-937.50L152.08-937.50M88.54-968.75L88.54-942.71L62.50-942.71L62.50-968.75L88.54-968.75M0-906.25L26.04-906.25L26.04-879.17L0-879.17L0-906.25M26.04-937.50L26.04-911.46L0-911.46L0-937.50L26.04-937.50M31.25-911.46L31.25-937.50L57.29-937.50L57.29-911.46L31.25-911.46M31.25-968.75L57.29-968.75L57.29-942.71L31.25-942.71L31.25-968.75M31.25-906.25L57.29-906.25L57.29-879.17L31.25-879.17L31.25-906.25M0-873.96L26.04-873.96L26.04-847.92L0-847.92L0-873.96M0-811.46L26.04-811.46L26.04-785.42L0-785.42L0-811.46M26.04-842.71L26.04-816.67L0-816.67L0-842.71L26.04-842.71M31.25-816.67L31.25-842.71L57.29-842.71L57.29-816.67L31.25-816.67M62.50-816.67L62.50-842.71L88.54-842.71L88.54-816.67L62.50-816.67M31.25-811.46L57.29-811.46L57.29-785.42L31.25-785.42L31.25-811.46M62.50-847.92L62.50-873.96L88.54-873.96L88.54-847.92L62.50-847.92M31.25-847.92L31.25-873.96L57.29-873.96L57.29-847.92L31.25-847.92M126.04-873.96L152.08-873.96L152.08-847.92L126.04-847.92L126.04-873.96M93.75-873.96L120.83-873.96L120.83-847.92L93.75-847.92L93.75-873.96M93.75-816.67L93.75-842.71L120.83-842.71L120.83-816.67L93.75-816.67M152.08-842.71L152.08-816.67L126.04-816.67L126.04-842.71L152.08-842.71M88.54-879.17L62.50-879.17L62.50-906.25L88.54-906.25L88.54-879.17M157.29-754.17L157.29-780.21L183.33-780.21L183.33-754.17L157.29-754.17M93.75-748.96L120.83-748.96L120.83-722.92L93.75-722.92L93.75-748.96M88.54-780.21L88.54-754.17L62.50-754.17L62.50-780.21L88.54-780.21M93.75-717.71L120.83-717.71L120.83-690.62L93.75-690.62L93.75-717.71M126.04-717.71L152.08-717.71L152.08-690.62L126.04-690.62L126.04-717.71M88.54-748.96L88.54-722.92L62.50-722.92L62.50-748.96L88.54-748.96M57.29-780.21L57.29-754.17L31.25-754.17L31.25-780.21L57.29-780.21M26.04-780.21L26.04-754.17L0-754.17L0-780.21L26.04-780.21M57.29-722.92L31.25-722.92L31.25-748.96L57.29-748.96L57.29-722.92M31.25-717.71L57.29-717.71L57.29-690.62L31.25-690.62L31.25-717.71M57.29-685.42L57.29-659.37L31.25-659.37L31.25-685.42L57.29-685.42M62.50-659.37L62.50-685.42L88.54-685.42L88.54-659.37L62.50-659.37M62.50-628.12L62.50-654.17L88.54-654.17L88.54-628.12L62.50-628.12M126.04-654.17L152.08-654.17L152.08-628.12L126.04-628.12L126.04-654.17M152.08-685.42L152.08-659.37L126.04-659.37L126.04-685.42L152.08-685.42M157.29-659.37L157.29-685.42L183.33-685.42L183.33-659.37L157.29-659.37M93.75-654.17L120.83-654.17L120.83-628.12L93.75-628.12L93.75-654.17M93.75-659.37L93.75-685.42L120.83-685.42L120.83-659.37L93.75-659.37M152.08-622.92L152.08-596.87L126.04-596.87L126.04-622.92L152.08-622.92M157.29-596.87L157.29-622.92L183.33-622.92L183.33-596.87L157.29-596.87M157.29-628.12L157.29-654.17L183.33-654.17L183.33-628.12L157.29-628.12M88.54-690.62L62.50-690.62L62.50-717.71L88.54-717.71L88.54-690.62M219.79-754.17L219.79-780.21L245.83-780.21L245.83-754.17L219.79-754.17M214.58-780.21L214.58-754.17L188.54-754.17L188.54-780.21L214.58-780.21M219.79-654.17L245.83-654.17L245.83-628.12L219.79-628.12L219.79-654.17M188.54-596.87L188.54-622.92L214.58-622.92L214.58-596.87L188.54-596.87M219.79-591.67L245.83-591.67L245.83-565.62L219.79-565.62L219.79-591.67M219.79-596.87L219.79-622.92L245.83-622.92L245.83-596.87L219.79-596.87M214.58-628.12L188.54-628.12L188.54-654.17L214.58-654.17L214.58-628.12M188.54-591.67L214.58-591.67L214.58-565.62L188.54-565.62L188.54-591.67M251.04-591.67L277.08-591.67L277.08-565.62L251.04-565.62L251.04-591.67M277.08-622.92L277.08-596.87L251.04-596.87L251.04-622.92L277.08-622.92M183.33-785.42L157.29-785.42L157.29-811.46L183.33-811.46L183.33-785.42M251.04-560.42L277.08-560.42L277.08-534.37L251.04-534.37L251.04-560.42M251.04-496.88L277.08-496.88L277.08-470.83L251.04-470.83L251.04-496.88M277.08-529.17L277.08-503.13L251.04-503.13L251.04-529.17L277.08-529.17M219.79-560.42L245.83-560.42L245.83-534.37L219.79-534.37L219.79-560.42M219.79-496.88L245.83-496.88L245.83-470.83L219.79-470.83L219.79-496.88M219.79-503.13L219.79-529.17L245.83-529.17L245.83-503.13L219.79-503.13M188.54-496.88L214.58-496.88L214.58-470.83L188.54-470.83L188.54-496.88M219.79-439.58L219.79-465.63L245.83-465.63L245.83-439.58L219.79-439.58M214.58-465.63L214.58-439.58L188.54-439.58L188.54-465.63L214.58-465.63M183.33-465.63L183.33-439.58L157.29-439.58L157.29-465.63L183.33-465.63M183.33-434.38L183.33-408.33L157.29-408.33L157.29-434.38L183.33-434.38M188.54-408.33L188.54-434.38L214.58-434.38L214.58-408.33L188.54-408.33M245.83-434.38L245.83-408.33L219.79-408.33L219.79-434.38L245.83-434.38M219.79-403.13L245.83-403.13L245.83-377.08L219.79-377.08L219.79-403.13M188.54-403.13L214.58-403.13L214.58-377.08L188.54-377.08L188.54-403.13M277.08-465.63L277.08-439.58L251.04-439.58L251.04-465.63L277.08-465.63M277.08-434.38L277.08-408.33L251.04-408.33L251.04-434.38L277.08-434.38M183.33-496.88L183.33-470.83L157.29-470.83L157.29-496.88L183.33-496.88M126.04-560.42L152.08-560.42L152.08-534.37L126.04-534.37L126.04-560.42M93.75-560.42L120.83-560.42L120.83-534.37L93.75-534.37L93.75-560.42M93.75-496.88L120.83-496.88L120.83-470.83L93.75-470.83L93.75-496.88M93.75-503.13L93.75-529.17L120.83-529.17L120.83-503.13L93.75-503.13M126.04-496.88L152.08-496.88L152.08-470.83L126.04-470.83L126.04-496.88M152.08-529.17L152.08-503.13L126.04-503.13L126.04-529.17L152.08-529.17M152.08-465.63L152.08-439.58L126.04-439.58L126.04-465.63L152.08-465.63M93.75-439.58L93.75-465.63L120.83-465.63L120.83-439.58L93.75-439.58M152.08-434.38L152.08-408.33L126.04-408.33L126.04-434.38L152.08-434.38M157.29-282.29L157.29-309.37L183.33-309.37L183.33-282.29L157.29-282.29M152.08-282.29L126.04-282.29L126.04-309.37L152.08-309.37L152.08-282.29M126.04-245.83L152.08-245.83L152.08-219.79L126.04-219.79L126.04-245.83M157.29-251.04L157.29-277.08L183.33-277.08L183.33-251.04L157.29-251.04M126.04-251.04L126.04-277.08L152.08-277.08L152.08-251.04L126.04-251.04M126.04-183.33L152.08-183.33L152.08-157.29L126.04-157.29L126.04-183.33M157.29-188.54L157.29-214.58L183.33-214.58L183.33-188.54L157.29-188.54M152.08-214.58L152.08-188.54L126.04-188.54L126.04-214.58L152.08-214.58M157.29-219.79L157.29-245.83L183.33-245.83L183.33-219.79L157.29-219.79M282.29-282.29L282.29-309.37L309.38-309.37L309.38-282.29L282.29-282.29M277.08-282.29L251.04-282.29L251.04-309.37L277.08-309.37L277.08-282.29M188.54-188.54L188.54-214.58L214.58-214.58L214.58-188.54L188.54-188.54M219.79-183.33L245.83-183.33L245.83-157.29L219.79-157.29L219.79-183.33M188.54-183.33L214.58-183.33L214.58-157.29L188.54-157.29L188.54-183.33M309.38-277.08L309.38-251.04L282.29-251.04L282.29-277.08L309.38-277.08M251.04-245.83L277.08-245.83L277.08-219.79L251.04-219.79L251.04-245.83M251.04-251.04L251.04-277.08L277.08-277.08L277.08-251.04L251.04-251.04M251.04-183.33L277.08-183.33L277.08-157.29L251.04-157.29L251.04-183.33M282.29-188.54L282.29-214.58L309.38-214.58L309.38-188.54L282.29-188.54M277.08-214.58L277.08-188.54L251.04-188.54L251.04-214.58L277.08-214.58M282.29-245.83L309.38-245.83L309.38-219.79L282.29-219.79L282.29-245.83M282.29-183.33L309.38-183.33L309.38-157.29L282.29-157.29L282.29-183.33M183.33-403.13L183.33-377.08L157.29-377.08L157.29-403.13L183.33-403.13M157.29-183.33L183.33-183.33L183.33-157.29L157.29-157.29L157.29-183.33M596.88-496.88L622.92-496.88L622.92-470.83L596.88-470.83L596.88-496.88M628.13-503.13L628.13-529.17L654.17-529.17L654.17-503.13L628.13-503.13M628.13-496.88L654.17-496.88L654.17-470.83L628.13-470.83L628.13-496.88M654.17-560.42L654.17-534.37L628.13-534.37L628.13-560.42L654.17-560.42M654.17-465.63L654.17-439.58L628.13-439.58L628.13-465.63L654.17-465.63M434.38-529.17L434.38-503.13L408.33-503.13L408.33-529.17L434.38-529.17M434.38-560.42L434.38-534.37L408.33-534.37L408.33-560.42L434.38-560.42M377.08-560.42L403.13-560.42L403.13-534.37L377.08-534.37L377.08-560.42M345.83-560.42L371.88-560.42L371.88-534.37L345.83-534.37L345.83-560.42M371.88-503.13L345.83-503.13L345.83-529.17L371.88-529.17L371.88-503.13M345.83-496.88L371.88-496.88L371.88-470.83L345.83-470.83L345.83-496.88M403.13-503.13L377.08-503.13L377.08-529.17L403.13-529.17L403.13-503.13M377.08-496.88L403.13-496.88L403.13-470.83L377.08-470.83L377.08-496.88M408.33-439.58L408.33-465.63L434.38-465.63L434.38-439.58L408.33-439.58M403.13-439.58L377.08-439.58L377.08-465.63L403.13-465.63L403.13-439.58M371.88-439.58L345.83-439.58L345.83-465.63L371.88-465.63L371.88-439.58M345.83-403.13L371.88-403.13L371.88-377.08L345.83-377.08L345.83-403.13M371.88-408.33L345.83-408.33L345.83-434.38L371.88-434.38L371.88-408.33M408.33-408.33L408.33-434.38L434.38-434.38L434.38-408.33L408.33-408.33M377.08-403.13L403.13-403.13L403.13-377.08L377.08-377.08L377.08-403.13M377.08-434.38L403.13-434.38L403.13-408.33L377.08-408.33L377.08-434.38M434.38-470.83L408.33-470.83L408.33-496.88L434.38-496.88L434.38-470.83M408.33-403.13L434.38-403.13L434.38-377.08L408.33-377.08L408.33-403.13M503.13-282.29L503.13-309.37L529.17-309.37L529.17-282.29L503.13-282.29M496.88-282.29L470.83-282.29L470.83-309.37L496.88-309.37L496.88-282.29M371.88-282.29L345.83-282.29L345.83-309.37L371.88-309.37L371.88-282.29M403.13-282.29L377.08-282.29L377.08-309.37L403.13-309.37L403.13-282.29M377.08-245.83L403.13-245.83L403.13-219.79L377.08-219.79L377.08-245.83M403.13-277.08L403.13-251.04L377.08-251.04L377.08-277.08L403.13-277.08M345.83-245.83L371.88-245.83L371.88-219.79L345.83-219.79L345.83-245.83M371.88-277.08L371.88-251.04L345.83-251.04L345.83-277.08L371.88-277.08M345.83-183.33L371.88-183.33L371.88-157.29L345.83-157.29L345.83-183.33M371.88-214.58L371.88-188.54L345.83-188.54L345.83-214.58L371.88-214.58M377.08-183.33L403.13-183.33L403.13-157.29L377.08-157.29L377.08-183.33M403.13-214.58L403.13-188.54L377.08-188.54L377.08-214.58L403.13-214.58M470.83-245.83L496.88-245.83L496.88-219.79L470.83-219.79L470.83-245.83M496.88-277.08L496.88-251.04L470.83-251.04L470.83-277.08L496.88-277.08M503.13-251.04L503.13-277.08L529.17-277.08L529.17-251.04L503.13-251.04M470.83-183.33L496.88-183.33L496.88-157.29L470.83-157.29L470.83-183.33M503.13-188.54L503.13-214.58L529.17-214.58L529.17-188.54L503.13-188.54M496.88-214.58L496.88-188.54L470.83-188.54L470.83-214.58L496.88-214.58M503.13-219.79L503.13-245.83L529.17-245.83L529.17-219.79L503.13-219.79M622.92-282.29L596.88-282.29L596.88-309.37L622.92-309.37L622.92-282.29M628.13-282.29L628.13-309.37L654.17-309.37L654.17-282.29L628.13-282.29M565.63-251.04L565.63-277.08L591.67-277.08L591.67-251.04L565.63-251.04M565.63-188.54L565.63-214.58L591.67-214.58L591.67-188.54L565.63-188.54M565.63-219.79L565.63-245.83L591.67-245.83L591.67-219.79L565.63-219.79M654.17-277.08L654.17-251.04L628.13-251.04L628.13-277.08L654.17-277.08M596.88-245.83L622.92-245.83L622.92-219.79L596.88-219.79L596.88-245.83M622.92-277.08L622.92-251.04L596.88-251.04L596.88-277.08L622.92-277.08M596.88-183.33L622.92-183.33L622.92-157.29L596.88-157.29L596.88-183.33M622.92-214.58L622.92-188.54L596.88-188.54L596.88-214.58L622.92-214.58M628.13-245.83L654.17-245.83L654.17-219.79L628.13-219.79L628.13-245.83M565.63-183.33L591.67-183.33L591.67-157.29L565.63-157.29L565.63-183.33M503.13-183.33L529.17-183.33L529.17-157.29L503.13-157.29L503.13-183.33M654.17-152.08L654.17-126.04L628.13-126.04L628.13-152.08L654.17-152.08M659.38-126.04L659.38-152.08L685.42-152.08L685.42-126.04L659.38-126.04M591.67-152.08L591.67-126.04L565.63-126.04L565.63-152.08L591.67-152.08M596.88-152.08L622.92-152.08L622.92-126.04L596.88-126.04L596.88-152.08M596.88-88.54L622.92-88.54L622.92-62.50L596.88-62.50L596.88-88.54M622.92-120.83L622.92-93.75L596.88-93.75L596.88-120.83L622.92-120.83M591.67-120.83L591.67-93.75L565.63-93.75L565.63-120.83L591.67-120.83M628.13-93.75L628.13-120.83L654.17-120.83L654.17-93.75L628.13-93.75M659.38-93.75L659.38-120.83L685.42-120.83L685.42-93.75L659.38-93.75M565.63-31.25L565.63-57.29L591.67-57.29L591.67-31.25L565.63-31.25M565.63 0L565.63-26.04L591.67-26.04L591.67 0L565.63 0M659.38-31.25L659.38-57.29L685.42-57.29L685.42-31.25L659.38-31.25M596.88-26.04L622.92-26.04L622.92 0L596.88 0L596.88-26.04M622.92-57.29L622.92-31.25L596.88-31.25L596.88-57.29L622.92-57.29M659.38 0L659.38-26.04L685.42-26.04L685.42 0L659.38 0M659.38-62.50L659.38-88.54L685.42-88.54L685.42-62.50L659.38-62.50M591.67-62.50L565.63-62.50L565.63-88.54L591.67-88.54L591.67-62.50M465.63-152.08L465.63-126.04L439.58-126.04L439.58-152.08L465.63-152.08M470.83-152.08L496.88-152.08L496.88-126.04L470.83-126.04L470.83-152.08M434.38-152.08L434.38-126.04L408.33-126.04L408.33-152.08L434.38-152.08M439.58-93.75L439.58-120.83L465.63-120.83L465.63-93.75L439.58-93.75M434.38-120.83L434.38-93.75L408.33-93.75L408.33-120.83L434.38-120.83M470.83-88.54L496.88-88.54L496.88-62.50L470.83-62.50L470.83-88.54M496.88-120.83L496.88-93.75L470.83-93.75L470.83-120.83L496.88-120.83M439.58-88.54L465.63-88.54L465.63-62.50L439.58-62.50L439.58-88.54M377.08-152.08L403.13-152.08L403.13-126.04L377.08-126.04L377.08-152.08M377.08-88.54L403.13-88.54L403.13-62.50L377.08-62.50L377.08-88.54M403.13-120.83L403.13-93.75L377.08-93.75L377.08-120.83L403.13-120.83M408.33-31.25L408.33-57.29L434.38-57.29L434.38-31.25L408.33-31.25M408.33 0L408.33-26.04L434.38-26.04L434.38 0L408.33 0M465.63-57.29L465.63-31.25L439.58-31.25L439.58-57.29L465.63-57.29M465.63-26.04L465.63 0L439.58 0L439.58-26.04L465.63-26.04M434.38-62.50L408.33-62.50L408.33-88.54L434.38-88.54L434.38-62.50M309.38-152.08L309.38-126.04L282.29-126.04L282.29-152.08L309.38-152.08M251.04-152.08L277.08-152.08L277.08-126.04L251.04-126.04L251.04-152.08M251.04-88.54L277.08-88.54L277.08-62.50L251.04-62.50L251.04-88.54M282.29-93.75L282.29-120.83L309.38-120.83L309.38-93.75L282.29-93.75M277.08-120.83L277.08-93.75L251.04-93.75L251.04-120.83L277.08-120.83M282.29-88.54L309.38-88.54L309.38-62.50L282.29-62.50L282.29-88.54M214.58-152.08L214.58-126.04L188.54-126.04L188.54-152.08L214.58-152.08M245.83-126.04L219.79-126.04L219.79-152.08L245.83-152.08L245.83-126.04M183.33-152.08L183.33-126.04L157.29-126.04L157.29-152.08L183.33-152.08M183.33-120.83L183.33-93.75L157.29-93.75L157.29-120.83L183.33-120.83M245.83-120.83L245.83-93.75L219.79-93.75L219.79-120.83L245.83-120.83M183.33-57.29L183.33-31.25L157.29-31.25L157.29-57.29L183.33-57.29M183.33-26.04L183.33 0L157.29 0L157.29-26.04L183.33-26.04M309.38-57.29L309.38-31.25L282.29-31.25L282.29-57.29L309.38-57.29M251.04-26.04L277.08-26.04L277.08 0L251.04 0L251.04-26.04M277.08-57.29L277.08-31.25L251.04-31.25L251.04-57.29L277.08-57.29M309.38-26.04L309.38 0L282.29 0L282.29-26.04L309.38-26.04M183.33-88.54L183.33-62.50L157.29-62.50L157.29-88.54L183.33-88.54M126.04-152.08L152.08-152.08L152.08-126.04L126.04-126.04L126.04-152.08M126.04-88.54L152.08-88.54L152.08-62.50L126.04-62.50L126.04-88.54M152.08-120.83L152.08-93.75L126.04-93.75L126.04-120.83L152.08-120.83M126.04-26.04L152.08-26.04L152.08 0L126.04 0L126.04-26.04M152.08-57.29L152.08-31.25L126.04-31.25L126.04-57.29L152.08-57.29M1282.29-120.83L1282.29-93.75L1256.25-93.75L1256.25-120.83L1282.29-120.83M1319.79-88.54L1345.83-88.54L1345.83-62.50L1319.79-62.50L1319.79-88.54M1225-152.08L1251.04-152.08L1251.04-126.04L1225-126.04L1225-152.08M1188.54-152.08L1188.54-126.04L1162.50-126.04L1162.50-152.08L1188.54-152.08M1193.75-152.08L1219.79-152.08L1219.79-126.04L1193.75-126.04L1193.75-152.08M1193.75-93.75L1193.75-120.83L1219.79-120.83L1219.79-93.75L1193.75-93.75M1188.54-120.83L1188.54-93.75L1162.50-93.75L1162.50-120.83L1188.54-120.83M1225-88.54L1251.04-88.54L1251.04-62.50L1225-62.50L1225-88.54M1251.04-120.83L1251.04-93.75L1225-93.75L1225-120.83L1251.04-120.83M1225-26.04L1251.04-26.04L1251.04 0L1225 0L1225-26.04M1256.25-31.25L1256.25-57.29L1282.29-57.29L1282.29-31.25L1256.25-31.25M1251.04-57.29L1251.04-31.25L1225-31.25L1225-57.29L1251.04-57.29M1188.54-57.29L1188.54-31.25L1162.50-31.25L1162.50-57.29L1188.54-57.29M1188.54-26.04L1188.54 0L1162.50 0L1162.50-26.04L1188.54-26.04M1256.25 0L1256.25-26.04L1282.29-26.04L1282.29 0L1256.25 0M1188.54-88.54L1188.54-62.50L1162.50-62.50L1162.50-88.54L1188.54-88.54M1282.29-62.50L1256.25-62.50L1256.25-88.54L1282.29-88.54L1282.29-62.50M1157.29-152.08L1157.29-126.04L1131.25-126.04L1131.25-152.08L1157.29-152.08M1131.25-93.75L1131.25-120.83L1157.29-120.83L1157.29-93.75L1131.25-93.75M1131.25-88.54L1157.29-88.54L1157.29-62.50L1131.25-62.50L1131.25-88.54M1062.50-152.08L1062.50-126.04L1036.46-126.04L1036.46-152.08L1062.50-152.08M1067.71-152.08L1093.75-152.08L1093.75-126.04L1067.71-126.04L1067.71-152.08M1031.25-152.08L1031.25-126.04L1005.21-126.04L1005.21-152.08L1031.25-152.08M1067.71-26.04L1093.75-26.04L1093.75 0L1067.71 0L1067.71-26.04M1062.50-26.04L1062.50 0L1036.46 0L1036.46-26.04L1062.50-26.04M1031.25-26.04L1031.25 0L1005.21 0L1005.21-26.04L1031.25-26.04M1157.29-57.29L1157.29-31.25L1131.25-31.25L1131.25-57.29L1157.29-57.29M1157.29-26.04L1157.29 0L1131.25 0L1131.25-26.04L1157.29-26.04M973.96-152.08LNaN-152.08LNaN-126.04L973.96-126.04L973.96-152.08M968.75-126.04L942.71-126.04L942.71-152.08L968.75-152.08L968.75-126.04M942.71-88.54L968.75-88.54L968.75-62.50L942.71-62.50L942.71-88.54M968.75-120.83L968.75-93.75L942.71-93.75L942.71-120.83L968.75-120.83M973.96-88.54LNaN-88.54LNaN-62.50L973.96-62.50L973.96-88.54MNaN-120.83LNaN-93.75L973.96-93.75L973.96-120.83LNaN-120.83M906.25-152.08L906.25-126.04L879.17-126.04L879.17-152.08L906.25-152.08M847.92-152.08L873.96-152.08L873.96-126.04L847.92-126.04L847.92-152.08M847.92-88.54L873.96-88.54L873.96-62.50L847.92-62.50L847.92-88.54M879.17-93.75L879.17-120.83L906.25-120.83L906.25-93.75L879.17-93.75M873.96-120.83L873.96-93.75L847.92-93.75L847.92-120.83L873.96-120.83M879.17-88.54L906.25-88.54L906.25-62.50L879.17-62.50L879.17-88.54M847.92-26.04L873.96-26.04L873.96 0L847.92 0L847.92-26.04M842.71-57.29L842.71-31.25L816.67-31.25L816.67-57.29L842.71-57.29M873.96-57.29L873.96-31.25L847.92-31.25L847.92-57.29L873.96-57.29M842.71-26.04L842.71 0L816.67 0L816.67-26.04L842.71-26.04M973.96-26.04LNaN-26.04LNaN 0L973.96 0L973.96-26.04MNaN-57.29LNaN-31.25L973.96-31.25L973.96-57.29LNaN-57.29M942.71-26.04L968.75-26.04L968.75 0L942.71 0L942.71-26.04M968.75-57.29L968.75-31.25L942.71-31.25L942.71-57.29L968.75-57.29M811.46-152.08L811.46-126.04L785.42-126.04L785.42-152.08L811.46-152.08M780.21-152.08L780.21-126.04L754.17-126.04L754.17-152.08L780.21-152.08M780.21-120.83L780.21-93.75L754.17-93.75L754.17-120.83L780.21-120.83M785.42-93.75L785.42-120.83L811.46-120.83L811.46-93.75L785.42-93.75M785.42-88.54L811.46-88.54L811.46-62.50L785.42-62.50L785.42-88.54M717.71-152.08L717.71-126.04L690.63-126.04L690.63-152.08L717.71-152.08M690.63-93.75L690.63-120.83L717.71-120.83L717.71-93.75L690.63-93.75M690.63-88.54L717.71-88.54L717.71-62.50L690.63-62.50L690.63-88.54M754.17-31.25L754.17-57.29L780.21-57.29L780.21-31.25L754.17-31.25M717.71-57.29L717.71-31.25L690.63-31.25L690.63-57.29L717.71-57.29M754.17 0L754.17-26.04L780.21-26.04L780.21 0L754.17 0M717.71-26.04L717.71 0L690.63 0L690.63-26.04L717.71-26.04M811.46-57.29L811.46-31.25L785.42-31.25L785.42-57.29L811.46-57.29M811.46-26.04L811.46 0L785.42 0L785.42-26.04L811.46-26.04M754.17-88.54L780.21-88.54L780.21-62.50L754.17-62.50L754.17-88.54M685.42-157.29L659.38-157.29L659.38-183.33L685.42-183.33L685.42-157.29M88.54-309.37L88.54-282.29L62.50-282.29L62.50-309.37L88.54-309.37M31.25-282.29L31.25-309.37L57.29-309.37L57.29-282.29L31.25-282.29M62.50-251.04L62.50-277.08L88.54-277.08L88.54-251.04L62.50-251.04M57.29-277.08L57.29-251.04L31.25-251.04L31.25-277.08L57.29-277.08M31.25-188.54L31.25-214.58L57.29-214.58L57.29-188.54L31.25-188.54M62.50-188.54L62.50-214.58L88.54-214.58L88.54-188.54L62.50-188.54M31.25-183.33L57.29-183.33L57.29-157.29L31.25-157.29L31.25-183.33M57.29-219.79L31.25-219.79L31.25-245.83L57.29-245.83L57.29-219.79M62.50-219.79L62.50-245.83L88.54-245.83L88.54-219.79L62.50-219.79M62.50-183.33L88.54-183.33L88.54-157.29L62.50-157.29L62.50-183.33M88.54-152.08L88.54-126.04L62.50-126.04L62.50-152.08L88.54-152.08M88.54-120.83L88.54-93.75L62.50-93.75L62.50-120.83L88.54-120.83M57.29-152.08L57.29-126.04L31.25-126.04L31.25-152.08L57.29-152.08M31.25-93.75L31.25-120.83L57.29-120.83L57.29-93.75L31.25-93.75M31.25-88.54L57.29-88.54L57.29-62.50L31.25-62.50L31.25-88.54M62.50-31.25L62.50-57.29L88.54-57.29L88.54-31.25L62.50-31.25M57.29-57.29L57.29-31.25L31.25-31.25L31.25-57.29L57.29-57.29M62.50 0L62.50-26.04L88.54-26.04L88.54 0L62.50 0M31.25 0L31.25-26.04L57.29-26.04L57.29 0L31.25 0M88.54-62.50L62.50-62.50L62.50-88.54L88.54-88.54" />
</svg>
