<svg xmlns="http://www.w3.org/2000/svg"
  viewBox="-90 -1090 1305 1181"
  fill="currentColor"
  aria-hidden="true">
  <path d="MNaN-500LNaN-500LNaN-625LNaN-625LNaN-500M625-500LNaN-500LNaN-625L625-625L625-500MNaN-250L750-250L750-125L625-125L625-250LNaN-250LNaN-125L375-125L375-250LNaN-250LNaN 0L0 0L0-125LNaN-125LNaN-750LNaN-750LNaN-875LNaN-875LNaN-1000LNaN-1000LNaN-875L375-875L375-750L750-750L750-875LNaN-875LNaN-1000LNaN-1000LNaN-875LNaN-875LNaN-750LNaN-750LNaN-125L1125-125L1125 0LNaN 0" />
</svg>
