<svg xmlns="http://www.w3.org/2000/svg"
  viewBox="-100 -1100 1450 1201"
  fill="currentColor"
  aria-hidden="true">
  <path d="M375-500LNaN-500LNaN-625L375-625L375-500M750-500LNaN-500LNaN-625L750-625L750-500MNaN-250L750-250L750-125LNaN-125LNaN-250L375-250L375-375LNaN-375LNaN-125L375-125L375 0L0 0L0-125LNaN-125LNaN-625LNaN-625LNaN-750L375-750L375-875LNaN-875LNaN-1000L375-1000L375-875LNaN-875LNaN-750L750-750L750-875LNaN-875LNaN-1000LNaN-1000LNaN-875LNaN-875LNaN-750LNaN-750LNaN-625L1125-625L1125-125L1250-125L1250 0LNaN 0LNaN-125LNaN-125LNaN-375LNaN-375LNaN-250MNaN-250L750-250L750-375LNaN-375" />
</svg>
