<svg xmlns="http://www.w3.org/2000/svg"
  viewBox="-100 -1100 1450 1201"
  fill="currentColor"
  aria-hidden="true">
  <path d="MNaN-375LNaN-625L375-625L375-375LNaN-375MNaN-375LNaN-625L750-625L750-375LNaN-375MNaN-875LNaN-1000LNaN-1000LNaN-875LNaN-875LNaN-750LNaN-750LNaN-500L1125-500L1125-125L1250-125L1250 0LNaN 0LNaN-125LNaN-125LNaN 0L750 0L750-125LNaN-125LNaN-250L375-250L375-125LNaN-125LNaN 0L375 0L375-125LNaN-125LNaN 0L0 0L0-125LNaN-125LNaN-500LNaN-500LNaN-750L375-750L375-875LNaN-875LNaN-1000L375-1000L375-875LNaN-875LNaN-750L750-750L750-875" />
</svg>
