<svg xmlns="http://www.w3.org/2000/svg"
  viewBox="-110 -1110 1595 1221"
  fill="currentColor"
  aria-hidden="true">
  <path d="M625-750LNaN-750LNaN-625L625-625L625-750M750-625LNaN-625LNaN-750L750-750L750-625MNaN-375LNaN-250L750-250L750-375L625-375L625-250LNaN-250LNaN-375LNaN-375LNaN 0L0 0L0-125LNaN-125LNaN-750LNaN-750LNaN-625L375-625L375-875LNaN-875LNaN-1000LNaN-1000LNaN-875LNaN-875LNaN-625L1125-625L1125-750L1250-750L1250-375L1125-375L1250-375L1250-125L1375-125L1375 0L1125 0L1125-375LNaN-375Q877.08-375 NaN-375" />
</svg>
