<svg width="32" height="32" viewBox="0 0 32 32" fill="none" xmlns="http://www.w3.org/2000/svg">
<g clip-path="url(#clip0_2219_10119)">
<path d="M4 7V21H14V15H15V7H4Z" fill="white"/>
<path d="M12 18H11V17H12V18Z" fill="black"/>
<path fill-rule="evenodd" clip-rule="evenodd" d="M15 6H4V7H3V21H4V22H14V21H15V16H16V7H15V6ZM12 18V19H14V21H4V7H15V15H13V16H14V18H12Z" fill="black"/>
<rect x="12" y="10" width="1" height="2" fill="black"/>
<rect x="11" y="8" width="3" height="1" fill="black"/>
</g>
<rect x="16" y="19" width="12" height="9" fill="white"/>
<path d="M20 16H19V17H20V16Z" fill="black"/>
<path d="M21 16H20V17H21V16Z" fill="black"/>
<path d="M22 16H21V17H22V16Z" fill="black"/>
<path d="M23 16H22V17H23V16Z" fill="black"/>
<path d="M24 16H23V17H24V16Z" fill="black"/>
<path d="M19 17H18V18H19V17Z" fill="black"/>
<path d="M20 17H19V18H20V17Z" fill="black"/>
<path d="M21 17H20V18H21V17Z" fill="black"/>
<path d="M22 17H21V18H22V17Z" fill="black"/>
<path d="M23 17H22V18H23V17Z" fill="black"/>
<path d="M24 17H23V18H24V17Z" fill="black"/>
<path d="M25 17H24V18H25V17Z" fill="black"/>
<path d="M15 18H14V19H15V18Z" fill="black"/>
<path d="M16 18H15V19H16V18Z" fill="black"/>
<path d="M17 18H16V19H17V18Z" fill="black"/>
<path d="M18 18H17V19H18V18Z" fill="black"/>
<path d="M19 18H18V19H19V18Z" fill="black"/>
<path d="M20 18H19V19H20V18Z" fill="black"/>
<path d="M21 18H20V19H21V18Z" fill="black"/>
<path d="M22 18H21V19H22V18Z" fill="black"/>
<path d="M23 18H22V19H23V18Z" fill="black"/>
<path d="M24 18H23V19H24V18Z" fill="black"/>
<path d="M25 18H24V19H25V18Z" fill="black"/>
<path d="M26 18H25V19H26V18Z" fill="black"/>
<path d="M27 18H26V19H27V18Z" fill="black"/>
<path d="M28 18H27V19H28V18Z" fill="black"/>
<path d="M29 18H28V19H29V18Z" fill="black"/>
<path d="M14 19H13V20H14V19Z" fill="black"/>
<path d="M15 19H14V20H15V19Z" fill="black"/>
<path d="M16 19H15V20H16V19Z" fill="black"/>
<path d="M17 19H16V20H17V19Z" fill="black"/>
<path d="M18 19H17V20H18V19Z" fill="black"/>
<path d="M19 19H18V20H19V19Z" fill="black"/>
<path d="M20 19H19V20H20V19Z" fill="black"/>
<path d="M21 19H20V20H21V19Z" fill="black"/>
<path d="M22 19H21V20H22V19Z" fill="black"/>
<path d="M23 19H22V20H23V19Z" fill="black"/>
<path d="M24 19H23V20H24V19Z" fill="black"/>
<path d="M25 19H24V20H25V19Z" fill="black"/>
<path d="M26 19H25V20H26V19Z" fill="black"/>
<path d="M28 19H27V20H28V19Z" fill="black"/>
<path d="M29 19H28V20H29V19Z" fill="black"/>
<path d="M30 19H29V20H30V19Z" fill="black"/>
<path d="M14 20H13V21H14V20Z" fill="black"/>
<path d="M15 20H14V21H15V20Z" fill="black"/>
<path d="M16 20H15V21H16V20Z" fill="black"/>
<path d="M17 20H16V21H17V20Z" fill="black"/>
<path d="M18 20H17V21H18V20Z" fill="black"/>
<path d="M19 20H18V21H19V20Z" fill="black"/>
<path d="M20 20H19V21H20V20Z" fill="black"/>
<path d="M24 20H23V21H24V20Z" fill="black"/>
<path d="M25 20H24V21H25V20Z" fill="black"/>
<path d="M26 20H25V21H26V20Z" fill="black"/>
<path d="M27 20H26V21H27V20Z" fill="black"/>
<path d="M28 20H27V21H28V20Z" fill="black"/>
<path d="M29 20H28V21H29V20Z" fill="black"/>
<path d="M30 20H29V21H30V20Z" fill="black"/>
<path d="M14 21H13V22H14V21Z" fill="black"/>
<path d="M15 21H14V22H15V21Z" fill="black"/>
<path d="M16 21H15V22H16V21Z" fill="black"/>
<path d="M17 21H16V22H17V21Z" fill="black"/>
<path d="M18 21H17V22H18V21Z" fill="black"/>
<path d="M19 21H18V22H19V21Z" fill="black"/>
<path d="M21 21H20V22H21V21Z" fill="black"/>
<path d="M22 21H21V22H22V21Z" fill="black"/>
<path d="M23 21H22V22H23V21Z" fill="black"/>
<path d="M25 21H24V22H25V21Z" fill="black"/>
<path d="M26 21H25V22H26V21Z" fill="black"/>
<path d="M27 21H26V22H27V21Z" fill="black"/>
<path d="M28 21H27V22H28V21Z" fill="black"/>
<path d="M29 21H28V22H29V21Z" fill="black"/>
<path d="M30 21H29V22H30V21Z" fill="black"/>
<path d="M14 22H13V23H14V22Z" fill="black"/>
<path d="M15 22H14V23H15V22Z" fill="black"/>
<path d="M16 22H15V23H16V22Z" fill="black"/>
<path d="M17 22H16V23H17V22Z" fill="black"/>
<path d="M18 22H17V23H18V22Z" fill="black"/>
<path d="M20 22H19V23H20V22Z" fill="black"/>
<path d="M21 22H20V23H21V22Z" fill="black"/>
<path d="M22 22H21V23H22V22Z" fill="black"/>
<path d="M23 22H22V23H23V22Z" fill="black"/>
<path d="M24 22H23V23H24V22Z" fill="black"/>
<path d="M26 22H25V23H26V22Z" fill="black"/>
<path d="M27 22H26V23H27V22Z" fill="black"/>
<path d="M28 22H27V23H28V22Z" fill="black"/>
<path d="M29 22H28V23H29V22Z" fill="black"/>
<path d="M30 22H29V23H30V22Z" fill="black"/>
<path d="M14 23H13V24H14V23Z" fill="black"/>
<path d="M15 23H14V24H15V23Z" fill="black"/>
<path d="M16 23H15V24H16V23Z" fill="black"/>
<path d="M17 23H16V24H17V23Z" fill="black"/>
<path d="M18 23H17V24H18V23Z" fill="black"/>
<path d="M20 23H19V24H20V23Z" fill="black"/>
<path d="M21 23H20V24H21V23Z" fill="black"/>
<path d="M22 23H21V24H22V23Z" fill="black"/>
<path d="M23 23H22V24H23V23Z" fill="black"/>
<path d="M24 23H23V24H24V23Z" fill="black"/>
<path d="M26 23H25V24H26V23Z" fill="black"/>
<path d="M27 23H26V24H27V23Z" fill="black"/>
<path d="M28 23H27V24H28V23Z" fill="black"/>
<path d="M29 23H28V24H29V23Z" fill="black"/>
<path d="M30 23H29V24H30V23Z" fill="black"/>
<path d="M14 24H13V25H14V24Z" fill="black"/>
<path d="M15 24H14V25H15V24Z" fill="black"/>
<path d="M16 24H15V25H16V24Z" fill="black"/>
<path d="M17 24H16V25H17V24Z" fill="black"/>
<path d="M18 24H17V25H18V24Z" fill="black"/>
<path d="M20 24H19V25H20V24Z" fill="black"/>
<path d="M21 24H20V25H21V24Z" fill="black"/>
<path d="M22 24H21V25H22V24Z" fill="black"/>
<path d="M23 24H22V25H23V24Z" fill="black"/>
<path d="M24 24H23V25H24V24Z" fill="black"/>
<path d="M26 24H25V25H26V24Z" fill="black"/>
<path d="M27 24H26V25H27V24Z" fill="black"/>
<path d="M28 24H27V25H28V24Z" fill="black"/>
<path d="M29 24H28V25H29V24Z" fill="black"/>
<path d="M30 24H29V25H30V24Z" fill="black"/>
<path d="M14 25H13V26H14V25Z" fill="black"/>
<path d="M15 25H14V26H15V25Z" fill="black"/>
<path d="M16 25H15V26H16V25Z" fill="black"/>
<path d="M17 25H16V26H17V25Z" fill="black"/>
<path d="M18 25H17V26H18V25Z" fill="black"/>
<path d="M19 25H18V26H19V25Z" fill="black"/>
<path d="M21 25H20V26H21V25Z" fill="black"/>
<path d="M22 25H21V26H22V25Z" fill="black"/>
<path d="M23 25H22V26H23V25Z" fill="black"/>
<path d="M25 25H24V26H25V25Z" fill="black"/>
<path d="M26 25H25V26H26V25Z" fill="black"/>
<path d="M27 25H26V26H27V25Z" fill="black"/>
<path d="M28 25H27V26H28V25Z" fill="black"/>
<path d="M29 25H28V26H29V25Z" fill="black"/>
<path d="M30 25H29V26H30V25Z" fill="black"/>
<path d="M14 26H13V27H14V26Z" fill="black"/>
<path d="M15 26H14V27H15V26Z" fill="black"/>
<path d="M16 26H15V27H16V26Z" fill="black"/>
<path d="M17 26H16V27H17V26Z" fill="black"/>
<path d="M18 26H17V27H18V26Z" fill="black"/>
<path d="M19 26H18V27H19V26Z" fill="black"/>
<path d="M20 26H19V27H20V26Z" fill="black"/>
<path d="M24 26H23V27H24V26Z" fill="black"/>
<path d="M25 26H24V27H25V26Z" fill="black"/>
<path d="M26 26H25V27H26V26Z" fill="black"/>
<path d="M27 26H26V27H27V26Z" fill="black"/>
<path d="M28 26H27V27H28V26Z" fill="black"/>
<path d="M29 26H28V27H29V26Z" fill="black"/>
<path d="M30 26H29V27H30V26Z" fill="black"/>
<path d="M14 27H13V28H14V27Z" fill="black"/>
<path d="M15 27H14V28H15V27Z" fill="black"/>
<path d="M16 27H15V28H16V27Z" fill="black"/>
<path d="M17 27H16V28H17V27Z" fill="black"/>
<path d="M18 27H17V28H18V27Z" fill="black"/>
<path d="M19 27H18V28H19V27Z" fill="black"/>
<path d="M20 27H19V28H20V27Z" fill="black"/>
<path d="M21 27H20V28H21V27Z" fill="black"/>
<path d="M22 27H21V28H22V27Z" fill="black"/>
<path d="M23 27H22V28H23V27Z" fill="black"/>
<path d="M24 27H23V28H24V27Z" fill="black"/>
<path d="M25 27H24V28H25V27Z" fill="black"/>
<path d="M26 27H25V28H26V27Z" fill="black"/>
<path d="M27 27H26V28H27V27Z" fill="black"/>
<path d="M28 27H27V28H28V27Z" fill="black"/>
<path d="M29 27H28V28H29V27Z" fill="black"/>
<path d="M30 27H29V28H30V27Z" fill="black"/>
<path d="M15 28H14V29H15V28Z" fill="black"/>
<path d="M16 28H15V29H16V28Z" fill="black"/>
<path d="M17 28H16V29H17V28Z" fill="black"/>
<path d="M18 28H17V29H18V28Z" fill="black"/>
<path d="M19 28H18V29H19V28Z" fill="black"/>
<path d="M20 28H19V29H20V28Z" fill="black"/>
<path d="M21 28H20V29H21V28Z" fill="black"/>
<path d="M22 28H21V29H22V28Z" fill="black"/>
<path d="M23 28H22V29H23V28Z" fill="black"/>
<path d="M24 28H23V29H24V28Z" fill="black"/>
<path d="M25 28H24V29H25V28Z" fill="black"/>
<path d="M26 28H25V29H26V28Z" fill="black"/>
<path d="M27 28H26V29H27V28Z" fill="black"/>
<path d="M28 28H27V29H28V28Z" fill="black"/>
<path d="M29 28H28V29H29V28Z" fill="black"/>
<defs>
<clipPath id="clip0_2219_10119">
<rect width="16" height="16" fill="white" transform="translate(2 6)"/>
</clipPath>
</defs>
</svg>
