<svg width="32" height="32" viewBox="0 0 32 32" fill="none" xmlns="http://www.w3.org/2000/svg">
<g clip-path="url(#clip0_2139_9168)">
<path d="M31 1H5V27H31V1Z" fill="white"/>
<path d="M11 18H1V31H11V18Z" fill="white"/>
<path d="M5 0H4V1H5V0Z" fill="black"/>
<path d="M6 0H5V1H6V0Z" fill="black"/>
<path d="M7 0H6V1H7V0Z" fill="black"/>
<path d="M8 0H7V1H8V0Z" fill="black"/>
<path d="M9 0H8V1H9V0Z" fill="black"/>
<path d="M10 0H9V1H10V0Z" fill="black"/>
<path d="M11 0H10V1H11V0Z" fill="black"/>
<path d="M12 0H11V1H12V0Z" fill="black"/>
<path d="M13 0H12V1H13V0Z" fill="black"/>
<path d="M14 0H13V1H14V0Z" fill="black"/>
<path d="M15 0H14V1H15V0Z" fill="black"/>
<path d="M16 0H15V1H16V0Z" fill="black"/>
<path d="M17 0H16V1H17V0Z" fill="black"/>
<path d="M18 0H17V1H18V0Z" fill="black"/>
<path d="M19 0H18V1H19V0Z" fill="black"/>
<path d="M20 0H19V1H20V0Z" fill="black"/>
<path d="M21 0H20V1H21V0Z" fill="black"/>
<path d="M22 0H21V1H22V0Z" fill="black"/>
<path d="M23 0H22V1H23V0Z" fill="black"/>
<path d="M24 0H23V1H24V0Z" fill="black"/>
<path d="M25 0H24V1H25V0Z" fill="black"/>
<path d="M26 0H25V1H26V0Z" fill="black"/>
<path d="M27 0H26V1H27V0Z" fill="black"/>
<path d="M28 0H27V1H28V0Z" fill="black"/>
<path d="M29 0H28V1H29V0Z" fill="black"/>
<path d="M30 0H29V1H30V0Z" fill="black"/>
<path d="M31 0H30V1H31V0Z" fill="black"/>
<path d="M32 0H31V1H32V0Z" fill="black"/>
<path d="M5 1H4V2H5V1Z" fill="black"/>
<path d="M14 1H13V2H14V1Z" fill="black"/>
<path d="M32 1H31V2H32V1Z" fill="black"/>
<path d="M5 2H4V3H5V2Z" fill="black"/>
<path d="M13 2H12V3H13V2Z" fill="black"/>
<path d="M14 2H13V3H14V2Z" fill="black"/>
<path d="M26 2H25V3H26V2Z" fill="black"/>
<path d="M27 2H26V3H27V2Z" fill="black"/>
<path d="M28 2H27V3H28V2Z" fill="black"/>
<path d="M32 2H31V3H32V2Z" fill="black"/>
<path d="M5 3H4V4H5V3Z" fill="black"/>
<path d="M13 3H12V4H13V3Z" fill="black"/>
<path d="M17 3H16V4H17V3Z" fill="black"/>
<path d="M18 3H17V4H18V3Z" fill="black"/>
<path d="M25 3H24V4H25V3Z" fill="black"/>
<path d="M29 3H28V4H29V3Z" fill="black"/>
<path d="M32 3H31V4H32V3Z" fill="black"/>
<path d="M5 4H4V5H5V4Z" fill="black"/>
<path d="M10 4H9V5H10V4Z" fill="black"/>
<path d="M11 4H10V5H11V4Z" fill="black"/>
<path d="M13 4H12V5H13V4Z" fill="black"/>
<path d="M17 4H16V5H17V4Z" fill="black"/>
<path d="M18 4H17V5H18V4Z" fill="black"/>
<path d="M19 4H18V5H19V4Z" fill="black"/>
<path d="M24 4H23V5H24V4Z" fill="black"/>
<path d="M30 4H29V5H30V4Z" fill="black"/>
<path d="M32 4H31V5H32V4Z" fill="black"/>
<path d="M5 5H4V6H5V5Z" fill="black"/>
<path d="M10 5H9V6H10V5Z" fill="black"/>
<path d="M11 5H10V6H11V5Z" fill="black"/>
<path d="M12 5H11V6H12V5Z" fill="black"/>
<path d="M13 5H12V6H13V5Z" fill="black"/>
<path d="M17 5H16V6H17V5Z" fill="black"/>
<path d="M18 5H17V6H18V5Z" fill="black"/>
<path d="M19 5H18V6H19V5Z" fill="black"/>
<path d="M20 5H19V6H20V5Z" fill="black"/>
<path d="M23 5H22V6H23V5Z" fill="black"/>
<path d="M24 5H23V6H24V5Z" fill="black"/>
<path d="M30 5H29V6H30V5Z" fill="black"/>
<path d="M32 5H31V6H32V5Z" fill="black"/>
<path d="M5 6H4V7H5V6Z" fill="black"/>
<path d="M10 6H9V7H10V6Z" fill="black"/>
<path d="M11 6H10V7H11V6Z" fill="black"/>
<path d="M12 6H11V7H12V6Z" fill="black"/>
<path d="M13 6H12V7H13V6Z" fill="black"/>
<path d="M17 6H16V7H17V6Z" fill="black"/>
<path d="M18 6H17V7H18V6Z" fill="black"/>
<path d="M20 6H19V7H20V6Z" fill="black"/>
<path d="M21 6H20V7H21V6Z" fill="black"/>
<path d="M23 6H22V7H23V6Z" fill="black"/>
<path d="M24 6H23V7H24V6Z" fill="black"/>
<path d="M25 6H24V7H25V6Z" fill="black"/>
<path d="M30 6H29V7H30V6Z" fill="black"/>
<path d="M32 6H31V7H32V6Z" fill="black"/>
<path d="M5 7H4V8H5V7Z" fill="black"/>
<path d="M10 7H9V8H10V7Z" fill="black"/>
<path d="M11 7H10V8H11V7Z" fill="black"/>
<path d="M13 7H12V8H13V7Z" fill="black"/>
<path d="M14 7H13V8H14V7Z" fill="black"/>
<path d="M17 7H16V8H17V7Z" fill="black"/>
<path d="M18 7H17V8H18V7Z" fill="black"/>
<path d="M23 7H22V8H23V7Z" fill="black"/>
<path d="M24 7H23V8H24V7Z" fill="black"/>
<path d="M25 7H24V8H25V7Z" fill="black"/>
<path d="M26 7H25V8H26V7Z" fill="black"/>
<path d="M29 7H28V8H29V7Z" fill="black"/>
<path d="M32 7H31V8H32V7Z" fill="black"/>
<path d="M5 8H4V9H5V8Z" fill="black"/>
<path d="M10 8H9V9H10V8Z" fill="black"/>
<path d="M11 8H10V9H11V8Z" fill="black"/>
<path d="M13 8H12V9H13V8Z" fill="black"/>
<path d="M17 8H16V9H17V8Z" fill="black"/>
<path d="M18 8H17V9H18V8Z" fill="black"/>
<path d="M23 8H22V9H23V8Z" fill="black"/>
<path d="M24 8H23V9H24V8Z" fill="black"/>
<path d="M26 8H25V9H26V8Z" fill="black"/>
<path d="M27 8H26V9H27V8Z" fill="black"/>
<path d="M28 8H27V9H28V8Z" fill="black"/>
<path d="M32 8H31V9H32V8Z" fill="black"/>
<path d="M5 9H4V10H5V9Z" fill="black"/>
<path d="M10 9H9V10H10V9Z" fill="black"/>
<path d="M11 9H10V10H11V9Z" fill="black"/>
<path d="M13 9H12V10H13V9Z" fill="black"/>
<path d="M15 9H14V10H15V9Z" fill="black"/>
<path d="M16 9H15V10H16V9Z" fill="black"/>
<path d="M17 9H16V10H17V9Z" fill="black"/>
<path d="M18 9H17V10H18V9Z" fill="black"/>
<path d="M23 9H22V10H23V9Z" fill="black"/>
<path d="M24 9H23V10H24V9Z" fill="black"/>
<path d="M32 9H31V10H32V9Z" fill="black"/>
<path d="M5 10H4V11H5V10Z" fill="black"/>
<path d="M10 10H9V11H10V10Z" fill="black"/>
<path d="M11 10H10V11H11V10Z" fill="black"/>
<path d="M13 10H12V11H13V10Z" fill="black"/>
<path d="M14 10H13V11H14V10Z" fill="black"/>
<path d="M15 10H14V11H15V10Z" fill="black"/>
<path d="M16 10H15V11H16V10Z" fill="black"/>
<path d="M17 10H16V11H17V10Z" fill="black"/>
<path d="M18 10H17V11H18V10Z" fill="black"/>
<path d="M23 10H22V11H23V10Z" fill="black"/>
<path d="M24 10H23V11H24V10Z" fill="black"/>
<path d="M32 10H31V11H32V10Z" fill="black"/>
<path d="M5 11H4V12H5V11Z" fill="black"/>
<path d="M8 11H7V12H8V11Z" fill="black"/>
<path d="M9 11H8V12H9V11Z" fill="black"/>
<path d="M10 11H9V12H10V11Z" fill="black"/>
<path d="M11 11H10V12H11V11Z" fill="black"/>
<path d="M13 11H12V12H13V11Z" fill="black"/>
<path d="M14 11H13V12H14V11Z" fill="black"/>
<path d="M15 11H14V12H15V11Z" fill="black"/>
<path d="M16 11H15V12H16V11Z" fill="black"/>
<path d="M17 11H16V12H17V11Z" fill="black"/>
<path d="M18 11H17V12H18V11Z" fill="black"/>
<path d="M21 11H20V12H21V11Z" fill="black"/>
<path d="M22 11H21V12H22V11Z" fill="black"/>
<path d="M23 11H22V12H23V11Z" fill="black"/>
<path d="M24 11H23V12H24V11Z" fill="black"/>
<path d="M32 11H31V12H32V11Z" fill="black"/>
<path d="M5 12H4V13H5V12Z" fill="black"/>
<path d="M7 12H6V13H7V12Z" fill="black"/>
<path d="M8 12H7V13H8V12Z" fill="black"/>
<path d="M9 12H8V13H9V12Z" fill="black"/>
<path d="M10 12H9V13H10V12Z" fill="black"/>
<path d="M11 12H10V13H11V12Z" fill="black"/>
<path d="M13 12H12V13H13V12Z" fill="black"/>
<path d="M15 12H14V13H15V12Z" fill="black"/>
<path d="M16 12H15V13H16V12Z" fill="black"/>
<path d="M17 12H16V13H17V12Z" fill="black"/>
<path d="M20 12H19V13H20V12Z" fill="black"/>
<path d="M21 12H20V13H21V12Z" fill="black"/>
<path d="M22 12H21V13H22V12Z" fill="black"/>
<path d="M23 12H22V13H23V12Z" fill="black"/>
<path d="M24 12H23V13H24V12Z" fill="black"/>
<path d="M32 12H31V13H32V12Z" fill="black"/>
<path d="M5 13H4V14H5V13Z" fill="black"/>
<path d="M7 13H6V14H7V13Z" fill="black"/>
<path d="M8 13H7V14H8V13Z" fill="black"/>
<path d="M9 13H8V14H9V13Z" fill="black"/>
<path d="M10 13H9V14H10V13Z" fill="black"/>
<path d="M11 13H10V14H11V13Z" fill="black"/>
<path d="M14 13H13V14H14V13Z" fill="black"/>
<path d="M20 13H19V14H20V13Z" fill="black"/>
<path d="M21 13H20V14H21V13Z" fill="black"/>
<path d="M22 13H21V14H22V13Z" fill="black"/>
<path d="M23 13H22V14H23V13Z" fill="black"/>
<path d="M24 13H23V14H24V13Z" fill="black"/>
<path d="M32 13H31V14H32V13Z" fill="black"/>
<path d="M5 14H4V15H5V14Z" fill="black"/>
<path d="M8 14H7V15H8V14Z" fill="black"/>
<path d="M9 14H8V15H9V14Z" fill="black"/>
<path d="M10 14H9V15H10V14Z" fill="black"/>
<path d="M15 14H14V15H15V14Z" fill="black"/>
<path d="M21 14H20V15H21V14Z" fill="black"/>
<path d="M22 14H21V15H22V14Z" fill="black"/>
<path d="M23 14H22V15H23V14Z" fill="black"/>
<path d="M32 14H31V15H32V14Z" fill="black"/>
<path d="M5 15H4V16H5V15Z" fill="black"/>
<path d="M16 15H15V16H16V15Z" fill="black"/>
<path d="M32 15H31V16H32V15Z" fill="black"/>
<path d="M5 16H4V17H5V16Z" fill="black"/>
<path d="M17 16H16V17H17V16Z" fill="black"/>
<path d="M32 16H31V17H32V16Z" fill="black"/>
<path d="M2 17H1V18H2V17Z" fill="black"/>
<path d="M3 17H2V18H3V17Z" fill="black"/>
<path d="M4 17H3V18H4V17Z" fill="black"/>
<path d="M5 17H4V18H5V17Z" fill="black"/>
<path d="M6 17H5V18H6V17Z" fill="black"/>
<path d="M7 17H6V18H7V17Z" fill="black"/>
<path d="M8 17H7V18H8V17Z" fill="black"/>
<path d="M9 17H8V18H9V17Z" fill="black"/>
<path d="M10 17H9V18H10V17Z" fill="black"/>
<path d="M11 17H10V18H11V17Z" fill="black"/>
<path d="M18 17H17V18H18V17Z" fill="black"/>
<path d="M19 17H18V18H19V17Z" fill="black"/>
<path d="M32 17H31V18H32V17Z" fill="black"/>
<path d="M1 18H0V19H1V18Z" fill="black"/>
<path d="M2 18H1V19H2V18Z" fill="black"/>
<path d="M11 18H10V19H11V18Z" fill="black"/>
<path d="M12 18H11V19H12V18Z" fill="black"/>
<path d="M20 18H19V19H20V18Z" fill="black"/>
<path d="M21 18H20V19H21V18Z" fill="black"/>
<path d="M30 18H29V19H30V18Z" fill="black"/>
<path d="M31 18H30V19H31V18Z" fill="black"/>
<path d="M32 18H31V19H32V18Z" fill="black"/>
<path d="M1 19H0V20H1V19Z" fill="black"/>
<path d="M3 19H2V20H3V19Z" fill="black"/>
<path d="M4 19H3V20H4V19Z" fill="black"/>
<path d="M5 19H4V20H5V19Z" fill="black"/>
<path d="M6 19H5V20H6V19Z" fill="black"/>
<path d="M7 19H6V20H7V19Z" fill="black"/>
<path d="M8 19H7V20H8V19Z" fill="black"/>
<path d="M9 19H8V20H9V19Z" fill="black"/>
<path d="M10 19H9V20H10V19Z" fill="black"/>
<path d="M12 19H11V20H12V19Z" fill="black"/>
<path d="M22 19H21V20H22V19Z" fill="black"/>
<path d="M23 19H22V20H23V19Z" fill="black"/>
<path d="M24 19H23V20H24V19Z" fill="black"/>
<path d="M25 19H24V20H25V19Z" fill="black"/>
<path d="M26 19H25V20H26V19Z" fill="black"/>
<path d="M27 19H26V20H27V19Z" fill="black"/>
<path d="M28 19H27V20H28V19Z" fill="black"/>
<path d="M29 19H28V20H29V19Z" fill="black"/>
<path d="M32 19H31V20H32V19Z" fill="black"/>
<path d="M1 20H0V21H1V20Z" fill="black"/>
<path d="M3 20H2V21H3V20Z" fill="black"/>
<path d="M4 20H3V21H4V20Z" fill="black"/>
<path d="M5 20H4V21H5V20Z" fill="black"/>
<path d="M6 20H5V21H6V20Z" fill="black"/>
<path d="M7 20H6V21H7V20Z" fill="black"/>
<path d="M8 20H7V21H8V20Z" fill="black"/>
<path d="M9 20H8V21H9V20Z" fill="black"/>
<path d="M10 20H9V21H10V20Z" fill="black"/>
<path d="M12 20H11V21H12V20Z" fill="black"/>
<path d="M32 20H31V21H32V20Z" fill="black"/>
<path d="M1 21H0V22H1V21Z" fill="black"/>
<path d="M3 21H2V22H3V21Z" fill="black"/>
<path d="M10 21H9V22H10V21Z" fill="black"/>
<path d="M12 21H11V22H12V21Z" fill="black"/>
<path d="M32 21H31V22H32V21Z" fill="black"/>
<path d="M1 22H0V23H1V22Z" fill="black"/>
<path d="M3 22H2V23H3V22Z" fill="black"/>
<path d="M4 22H3V23H4V22Z" fill="black"/>
<path d="M5 22H4V23H5V22Z" fill="black"/>
<path d="M6 22H5V23H6V22Z" fill="black"/>
<path d="M7 22H6V23H7V22Z" fill="black"/>
<path d="M8 22H7V23H8V22Z" fill="black"/>
<path d="M9 22H8V23H9V22Z" fill="black"/>
<path d="M10 22H9V23H10V22Z" fill="black"/>
<path d="M12 22H11V23H12V22Z" fill="black"/>
<path d="M32 22H31V23H32V22Z" fill="black"/>
<path d="M1 23H0V24H1V23Z" fill="black"/>
<path d="M12 23H11V24H12V23Z" fill="black"/>
<path d="M32 23H31V24H32V23Z" fill="black"/>
<path d="M1 24H0V25H1V24Z" fill="black"/>
<path d="M3 24H2V25H3V24Z" fill="black"/>
<path d="M4 24H3V25H4V24Z" fill="black"/>
<path d="M5 24H4V25H5V24Z" fill="black"/>
<path d="M6 24H5V25H6V24Z" fill="black"/>
<path d="M7 24H6V25H7V24Z" fill="black"/>
<path d="M8 24H7V25H8V24Z" fill="black"/>
<path d="M9 24H8V25H9V24Z" fill="black"/>
<path d="M10 24H9V25H10V24Z" fill="black"/>
<path d="M12 24H11V25H12V24Z" fill="black"/>
<path d="M13 24H12V25H13V24Z" fill="black"/>
<path d="M15 24H14V25H15V24Z" fill="black"/>
<path d="M17 24H16V25H17V24Z" fill="black"/>
<path d="M19 24H18V25H19V24Z" fill="black"/>
<path d="M21 24H20V25H21V24Z" fill="black"/>
<path d="M23 24H22V25H23V24Z" fill="black"/>
<path d="M25 24H24V25H25V24Z" fill="black"/>
<path d="M27 24H26V25H27V24Z" fill="black"/>
<path d="M29 24H28V25H29V24Z" fill="black"/>
<path d="M31 24H30V25H31V24Z" fill="black"/>
<path d="M32 24H31V25H32V24Z" fill="black"/>
<path d="M1 25H0V26H1V25Z" fill="black"/>
<path d="M12 25H11V26H12V25Z" fill="black"/>
<path d="M14 25H13V26H14V25Z" fill="black"/>
<path d="M16 25H15V26H16V25Z" fill="black"/>
<path d="M18 25H17V26H18V25Z" fill="black"/>
<path d="M20 25H19V26H20V25Z" fill="black"/>
<path d="M22 25H21V26H22V25Z" fill="black"/>
<path d="M24 25H23V26H24V25Z" fill="black"/>
<path d="M26 25H25V26H26V25Z" fill="black"/>
<path d="M28 25H27V26H28V25Z" fill="black"/>
<path d="M30 25H29V26H30V25Z" fill="black"/>
<path d="M32 25H31V26H32V25Z" fill="black"/>
<path d="M1 26H0V27H1V26Z" fill="black"/>
<path d="M12 26H11V27H12V26Z" fill="black"/>
<path d="M13 26H12V27H13V26Z" fill="black"/>
<path d="M15 26H14V27H15V26Z" fill="black"/>
<path d="M17 26H16V27H17V26Z" fill="black"/>
<path d="M19 26H18V27H19V26Z" fill="black"/>
<path d="M21 26H20V27H21V26Z" fill="black"/>
<path d="M23 26H22V27H23V26Z" fill="black"/>
<path d="M25 26H24V27H25V26Z" fill="black"/>
<path d="M27 26H26V27H27V26Z" fill="black"/>
<path d="M29 26H28V27H29V26Z" fill="black"/>
<path d="M31 26H30V27H31V26Z" fill="black"/>
<path d="M32 26H31V27H32V26Z" fill="black"/>
<path d="M1 27H0V28H1V27Z" fill="black"/>
<path d="M12 27H11V28H12V27Z" fill="black"/>
<path d="M13 27H12V28H13V27Z" fill="black"/>
<path d="M14 27H13V28H14V27Z" fill="black"/>
<path d="M15 27H14V28H15V27Z" fill="black"/>
<path d="M16 27H15V28H16V27Z" fill="black"/>
<path d="M17 27H16V28H17V27Z" fill="black"/>
<path d="M18 27H17V28H18V27Z" fill="black"/>
<path d="M19 27H18V28H19V27Z" fill="black"/>
<path d="M20 27H19V28H20V27Z" fill="black"/>
<path d="M21 27H20V28H21V27Z" fill="black"/>
<path d="M22 27H21V28H22V27Z" fill="black"/>
<path d="M23 27H22V28H23V27Z" fill="black"/>
<path d="M24 27H23V28H24V27Z" fill="black"/>
<path d="M25 27H24V28H25V27Z" fill="black"/>
<path d="M26 27H25V28H26V27Z" fill="black"/>
<path d="M27 27H26V28H27V27Z" fill="black"/>
<path d="M28 27H27V28H28V27Z" fill="black"/>
<path d="M29 27H28V28H29V27Z" fill="black"/>
<path d="M30 27H29V28H30V27Z" fill="black"/>
<path d="M31 27H30V28H31V27Z" fill="black"/>
<path d="M32 27H31V28H32V27Z" fill="black"/>
<path d="M1 28H0V29H1V28Z" fill="black"/>
<path d="M12 28H11V29H12V28Z" fill="black"/>
<path d="M1 29H0V30H1V29Z" fill="black"/>
<path d="M5 29H4V30H5V29Z" fill="black"/>
<path d="M6 29H5V30H6V29Z" fill="black"/>
<path d="M7 29H6V30H7V29Z" fill="black"/>
<path d="M8 29H7V30H8V29Z" fill="black"/>
<path d="M12 29H11V30H12V29Z" fill="black"/>
<path d="M1 30H0V31H1V30Z" fill="black"/>
<path d="M2 30H1V31H2V30Z" fill="black"/>
<path d="M11 30H10V31H11V30Z" fill="black"/>
<path d="M12 30H11V31H12V30Z" fill="black"/>
<path d="M2 31H1V32H2V31Z" fill="black"/>
<path d="M3 31H2V32H3V31Z" fill="black"/>
<path d="M4 31H3V32H4V31Z" fill="black"/>
<path d="M5 31H4V32H5V31Z" fill="black"/>
<path d="M6 31H5V32H6V31Z" fill="black"/>
<path d="M7 31H6V32H7V31Z" fill="black"/>
<path d="M8 31H7V32H8V31Z" fill="black"/>
<path d="M9 31H8V32H9V31Z" fill="black"/>
<path d="M10 31H9V32H10V31Z" fill="black"/>
<path d="M11 31H10V32H11V31Z" fill="black"/>
</g>
<defs>
<clipPath id="clip0_2139_9168">
<rect width="32" height="32" fill="white"/>
</clipPath>
</defs>
</svg>
