<svg width="32" height="32" viewBox="0 0 32 32" fill="none" xmlns="http://www.w3.org/2000/svg">
<g clip-path="url(#clip0_2131_9096)">
<mask id="mask0_2131_9096" style="mask-type:luminance" maskUnits="userSpaceOnUse" x="0" y="0" width="32" height="32">
<path d="M32 0H0V32H32V0Z" fill="white"/>
</mask>
<g mask="url(#mask0_2131_9096)">
<path d="M26 2H6V3H5V28H6V32H26V28H27V3H26V2Z" fill="white"/>
<path d="M9 22H7V23H9V22Z" fill="black"/>
<path d="M23.5 22H17.5V23H23.5V22Z" fill="black"/>
<path d="M24 4H8V5H24V4Z" fill="black"/>
<path d="M24 17H8V18H24V17Z" fill="black"/>
<path d="M8 5H7V17H8V5Z" fill="black"/>
<path d="M24 5H25V17H24V5Z" fill="black"/>
<path d="M12 15H13V14H12V15Z" fill="black"/>
<path d="M12 9H13V8H12V9Z" fill="black"/>
<path fill-rule="evenodd" clip-rule="evenodd" d="M26 1H6V2H5V3H4V27H5V32H27V27H28V3H27V2H26V1ZM26 2V3H27V27H5V3H6V2H26ZM6 28V31H26V28H6Z" fill="black"/>
</g>
<path d="M23 11H24V12H23V11Z" fill="black"/>
<path d="M22 12H23V13H22V12Z" fill="black"/>
<path d="M23 13H24V14H23V13Z" fill="black"/>
<path d="M22 14H23V15H22V14Z" fill="black"/>
<path d="M23 15H24V16H23V15Z" fill="black"/>
<path d="M22 6H23V7H22V6Z" fill="black"/>
<path d="M21 7H22V8H21V7Z" fill="black"/>
<path d="M22 8H23V9H22V8Z" fill="black"/>
<path d="M21 9H22V10H21V9Z" fill="black"/>
<path d="M22 10H23V11H22V10Z" fill="black"/>
<path d="M23 5H24V6H23V5Z" fill="black"/>
<path d="M22 6H23V7H22V6Z" fill="black"/>
<path d="M23 7H24V8H23V7Z" fill="black"/>
<path d="M22 8H23V9H22V8Z" fill="black"/>
<path d="M23 9H24V10H23V9Z" fill="black"/>
<path d="M9 5H10V6H9V5Z" fill="black"/>
<path d="M8 6H9V7H8V6Z" fill="black"/>
<path d="M9 7H10V8H9V7Z" fill="black"/>
<path d="M8 8H9V9H8V8Z" fill="black"/>
<path d="M9 9H10V10H9V9Z" fill="black"/>
<path d="M9 9H10V10H9V9Z" fill="black"/>
<path d="M8 10H9V11H8V10Z" fill="black"/>
<path d="M9 11H10V12H9V11Z" fill="black"/>
<path d="M9 11H10V12H9V11Z" fill="black"/>
<path d="M8 12H9V13H8V12Z" fill="black"/>
<path d="M9 13H10V14H9V13Z" fill="black"/>
<path d="M9 13H10V14H9V13Z" fill="black"/>
<path d="M8 14H9V15H8V14Z" fill="black"/>
<path d="M9 15H10V16H9V15Z" fill="black"/>
<path d="M8 16H9V17H8V16Z" fill="black"/>
<path d="M9 17H10V18H9V17Z" fill="black"/>
<path d="M11 5H12V6H11V5Z" fill="black"/>
<path d="M10 6H11V7H10V6Z" fill="black"/>
<path d="M11 7H12V8H11V7Z" fill="black"/>
<path d="M10 8H11V9H10V8Z" fill="black"/>
<path d="M11 9H12V10H11V9Z" fill="black"/>
<path d="M13 5H14V6H13V5Z" fill="black"/>
<path d="M12 6H13V7H12V6Z" fill="black"/>
<path d="M13 7H14V8H13V7Z" fill="black"/>
<path d="M12 8H13V9H12V8Z" fill="black"/>
<path d="M13 9H14V10H13V9Z" fill="black"/>
<path d="M15 5H16V6H15V5Z" fill="black"/>
<path d="M14 6H15V7H14V6Z" fill="black"/>
<path d="M15 7H16V8H15V7Z" fill="black"/>
<path d="M14 8H15V9H14V8Z" fill="black"/>
<path d="M15 9H16V10H15V9Z" fill="black"/>
<path d="M17 5H18V6H17V5Z" fill="black"/>
<path d="M16 6H17V7H16V6Z" fill="black"/>
<path d="M17 7H18V8H17V7Z" fill="black"/>
<path d="M16 8H17V9H16V8Z" fill="black"/>
<path d="M17 9H18V10H17V9Z" fill="black"/>
<path d="M19 5H20V6H19V5Z" fill="black"/>
<path d="M18 6H19V7H18V6Z" fill="black"/>
<path d="M19 7H20V8H19V7Z" fill="black"/>
<path d="M18 8H19V9H18V8Z" fill="black"/>
<path d="M19 9H20V10H19V9Z" fill="black"/>
<path d="M21 5H22V6H21V5Z" fill="black"/>
<path d="M20 6H21V7H20V6Z" fill="black"/>
<path d="M21 7H22V8H21V7Z" fill="black"/>
<path d="M20 8H21V9H20V8Z" fill="black"/>
<path d="M21 9H22V10H21V9Z" fill="black"/>
<path d="M10 10H11V11H10V10Z" fill="black"/>
<path d="M12 10H13V11H12V10Z" fill="black"/>
<path d="M14 10H15V11H14V10Z" fill="black"/>
<path d="M16 10H17V11H16V10Z" fill="black"/>
<path d="M18 10H19V11H18V10Z" fill="black"/>
<path d="M20 10H21V11H20V10Z" fill="black"/>
<path d="M11 13H12V14H11V13Z" fill="black"/>
<path d="M10 14H11V15H10V14Z" fill="black"/>
<path d="M11 15H12V16H11V15Z" fill="black"/>
<path d="M13 15H14V16H13V15Z" fill="black"/>
<path d="M15 15H16V16H15V15Z" fill="black"/>
<path d="M17 15H18V16H17V15Z" fill="black"/>
<path d="M19 15H20V16H19V15Z" fill="black"/>
<path d="M21 15H22V16H21V15Z" fill="black"/>
<path d="M10 16H11V17H10V16Z" fill="black"/>
<path d="M12 16H13V17H12V16Z" fill="black"/>
<path d="M14 16H15V17H14V16Z" fill="black"/>
<path d="M16 16H17V17H16V16Z" fill="black"/>
<path d="M18 16H19V17H18V16Z" fill="black"/>
<path d="M20 16H21V17H20V16Z" fill="black"/>
<path d="M22 16H23V17H22V16Z" fill="black"/>
<path d="M11 17H12V18H11V17Z" fill="black"/>
<path d="M11 11H12V12H11V11Z" fill="black"/>
<path d="M13 11H14V12H13V11Z" fill="black"/>
<path d="M15 11H16V12H15V11Z" fill="black"/>
<path d="M17 11H18V12H17V11Z" fill="black"/>
<path d="M19 11H20V12H19V11Z" fill="black"/>
<path d="M21 11H22V12H21V11Z" fill="black"/>
<path d="M10 12H11V13H10V12Z" fill="black"/>
<path d="M12 12H13V13H12V12Z" fill="black"/>
<path d="M14 12H15V13H14V12Z" fill="black"/>
<path d="M16 12H17V13H16V12Z" fill="black"/>
<path d="M18 12H19V13H18V12Z" fill="black"/>
<path d="M20 12H21V13H20V12Z" fill="black"/>
<path d="M13 13H14V14H13V13Z" fill="black"/>
<path d="M15 13H16V14H15V13Z" fill="black"/>
<path d="M17 13H18V14H17V13Z" fill="black"/>
<path d="M19 13H20V14H19V13Z" fill="black"/>
<path d="M21 13H22V14H21V13Z" fill="black"/>
<path d="M14 14H15V15H14V14Z" fill="black"/>
<path d="M16 14H17V15H16V14Z" fill="black"/>
<path d="M18 14H19V15H18V14Z" fill="black"/>
<path d="M20 14H21V15H20V14Z" fill="black"/>
</g>
<defs>
<clipPath id="clip0_2131_9096">
<rect width="32" height="32" fill="white"/>
</clipPath>
</defs>
</svg>
