<svg width="32" height="32" viewBox="0 0 32 32" fill="none" xmlns="http://www.w3.org/2000/svg">
<path d="M26 1H5V2H4V27H5V31H26V27H27V2H26V1Z" fill="white"/>
<path fill-rule="evenodd" clip-rule="evenodd" d="M26 0H5V1H4V2H3V27H4V32H27V27H28V2H27V1H26V0ZM26 1V2H27V27H4V2H5V1H26ZM26 31H5V28H26V31Z" fill="black"/>
<path fill-rule="evenodd" clip-rule="evenodd" d="M24 3H7V4H6V17H7V18H24V17H25V4H24V3ZM24 4V17H7V4H24Z" fill="black"/>
<rect x="6" y="22" width="2" height="1" fill="black"/>
<rect x="18.5" y="22" width="6" height="1" fill="black"/>
<path d="M15 7H16V11H19V12H16V14H17V13H18V12H19V11H20V11.5V12H19V13H18V14H17V15H16V16H15V12H11V11H15V9H14V10H13V9H14V8H15V7Z" fill="black"/>
<rect x="15" y="5" width="1" height="1" fill="black"/>
</svg>
