<svg width="32" height="32" viewBox="0 0 32 32" fill="none" xmlns="http://www.w3.org/2000/svg">
<path d="M26 1H5V2H4V27H5V31H26V27H27V2H26V1Z" fill="white"/>
<path fill-rule="evenodd" clip-rule="evenodd" d="M26 0H5V1H4V2H3V27H4V32H27V27H28V2H27V1H26V0ZM26 1V2H27V27H4V2H5V1H26ZM26 31H5V28H26V31Z" fill="black"/>
<path fill-rule="evenodd" clip-rule="evenodd" d="M24 3H7V4H6V17H7V18H24V17H25V4H24V3ZM24 4V17H7V4H24Z" fill="black"/>
<rect x="6" y="22" width="2" height="1" fill="black"/>
<rect x="18.5" y="22" width="6" height="1" fill="black"/>
<path d="M10 6H11V7H10V6Z" fill="black"/>
<path d="M12 7H11V8H10V9H11V8H12V9H13V8H12V7Z" fill="black"/>
<path d="M12 7V6H13V7H12Z" fill="black"/>
<path d="M13 10H14V11H13V10Z" fill="black"/>
<path d="M16 11V12H14V11H16Z" fill="black"/>
<path d="M16 11H17V10H16V11Z" fill="black"/>
<path d="M18 13H13V14H12V15H13V14H18V15H20V16H21V15H20V14H18V13Z" fill="black"/>
<path d="M18 6H19V7H18V6Z" fill="black"/>
<path d="M20 7H19V8H18V9H19V8H20V9H21V8H20V7Z" fill="black"/>
<path d="M20 7V6H21V7H20Z" fill="black"/>
</svg>
