<svg width="32" height="32" viewBox="0 0 32 32" fill="none" xmlns="http://www.w3.org/2000/svg">
<path d="M30 1H2V2H1V20H2V21H30V20H31V2H30V1Z" fill="white"/>
<path fill-rule="evenodd" clip-rule="evenodd" d="M2 0H26H30V1H2V0ZM1 2V1H2V2H1ZM1 20H0V2H1V20ZM2 21H1V20H2V21ZM30 21V22H2V21H30ZM31 20V21H30V20H31ZM31 2H32V20H31V2ZM31 2V1H30V2H31Z" fill="black"/>
<path fill-rule="evenodd" clip-rule="evenodd" d="M30 30H29V31H26V30H25V29H24H17V30H16V31H13V30H12V29H11V26H12V25H13V24H29V25H30V26H31V29H30V26H29V25H13V26H12V29H13V30H16V29L17 28H26V30H29V29H30V30Z" fill="black"/>
<path fill-rule="evenodd" clip-rule="evenodd" d="M28 3H4V4H3V18H4V19H28V18H29V4H28V3ZM28 4V18H4V4H28Z" fill="black"/>
<path d="M21 23H20V24H21V23Z" fill="black"/>
<path d="M22 22H21V23H22V22Z" fill="black"/>
<path d="M16 23H14V24H16V23Z" fill="black"/>
<path d="M28 23H26V24H28V23Z" fill="black"/>
<path fill-rule="evenodd" clip-rule="evenodd" d="M13 5V6H12V7H11H9V6H8V5H7V6H8V7H7V8H6V9H5V12H6V11H7V12H8V13H10V12H8V11H13V12H11V13H13V12H14V11H15V12H16V9H15V8H14V7H13V6H14V5H13Z" fill="black"/>
<path d="M13 8H12V9H13V8Z" fill="white"/>
<path d="M9 8H8V9H9V8Z" fill="white"/>
<path fill-rule="evenodd" clip-rule="evenodd" d="M24 9V10H23V11H22H20V10H19V9H18V10H19V11H18V12H17V13H16V16H17V15H18V16H19V17H21V16H19V15H24V16H22V17H24V16H25V15H26V16H27V13H26V12H25V11H24V10H25V9H24Z" fill="black"/>
<path d="M24 12H23V13H24V12Z" fill="white"/>
<path d="M20 12H19V13H20V12Z" fill="white"/>
<path d="M12 25H30V29H29V30H25V29H17V30H13V29H12V25Z" fill="black"/>
<path d="M14 27H13V28H14V27Z" fill="white"/>
<path d="M16 27H15V28H16V27Z" fill="white"/>
<path d="M15 28H14V29H15V28Z" fill="white"/>
<path d="M15 26H14V27H15V26Z" fill="white"/>
<path d="M22 27H20V28H22V27Z" fill="white"/>
<path d="M27 26H26V27H27V26Z" fill="white"/>
<path d="M29 26H28V27H29V26Z" fill="white"/>
<path d="M29 28H28V29H29V28Z" fill="white"/>
<path d="M27 28H26V29H27V28Z" fill="white"/>
</svg>
