<svg width="32" height="32" viewBox="0 0 32 32" fill="none" xmlns="http://www.w3.org/2000/svg" shapeRendering="crispEdges">
<rect width="32" height="32" fill="white"/>
<g fill="black">
  <rect x="14" y="2" width="4" height="2"/>
  <rect x="12" y="4" width="8" height="2"/>
  <rect x="10" y="6" width="12" height="2"/>
  <rect x="8" y="8" width="16" height="2"/>
  <rect x="6" y="10" width="20" height="4"/>
  <rect x="8" y="14" width="16" height="2"/>
  <rect x="6" y="16" width="20" height="4"/>
  <rect x="8" y="20" width="16" height="2"/>
  <rect x="10" y="22" width="12" height="2"/>
  <rect x="12" y="24" width="8" height="2"/>
  <rect x="14" y="26" width="4" height="2"/>
</g>
<g fill="white">
  <rect x="10" y="11" width="4" height="3"/>
  <rect x="18" y="11" width="4" height="3"/>
  <rect x="15" y="17" width="2" height="2"/>
</g>
</svg>
