<svg xmlns="http://www.w3.org/2000/svg"
  viewBox="-88 -888 1276 976"
  fill="currentColor"
  aria-hidden="true">
  <path d="M300-400L400-400L400-500L300-500L300-400M700-400L800-400L800-500L700-500L700-400M600 0L600-100L800-100L800-200L300-200L300-100L500-100L500 0L300 0L300-100L200-100L200-300L100-300L100-100L0-100L0-400L100-400L100-500L200-500L200-600L300-600L300-700L200-700L200-800L300-800L300-700L400-700L400-600L700-600L700-700L800-700L800-800L900-800L900-700L800-700L800-600L900-600L900-500L1000-500L1000-400L1100-400L1100-100L1000-100L1000-300L900-300L900-100L800-100L800 0" />
</svg>
