<svg xmlns="http://www.w3.org/2000/svg"
  viewBox="-64 -864 828 928"
  fill="currentColor"
  aria-hidden="true">
  <path d="M300-400L300-600L200-600L200-400L300-400M500-400L500-600L400-600L400-400L500-400M600-700L600-800L700-800L700-700L600-700L600-600L700-600L700-400L600-400L600-300L700-300L700-100L600-100L600 0L400 0L400-100L600-100L600-300L500-300L500-200L400-200L400-300L300-300L300-200L200-200L200-300L100-300L100-100L300-100L300 0L100 0L100-100L0-100L0-300L100-300L100-400L0-400L0-600L100-600L100-700L0-700L0-800L100-800L100-700" />
</svg>
