<svg xmlns="http://www.w3.org/2000/svg"
  viewBox="-36 -692 640 851"
  fill="currentColor"
  aria-hidden="true">
  <path d="M545-264L545-89L356-89L356-38L308-38L308 20L257 20L257 93Q254 100 246 99L28 97L28-264L76-264L75-322L28-323L28-367L75-368L75-322L124-322L124-264L168-264L168-322L218-322L218-368L286-367L287-409L218-409L218-505L168-506L168-554L218-554L218-633L545-633L545-562L504-562L505-507L545-508L545-320L504-320L504-264L545-264M73-458L73-407L23-407L23-458L73-458M218-503L295-503L295-554L218-554L218-503M218-266L272-266L272-319L218-319" />
</svg>
