<svg xmlns="http://www.w3.org/2000/svg"
  viewBox="-40 -540 580 580"
  fill="currentColor"
  aria-hidden="true">
  <path d="M187.50 0L125 0L125-62.50L187.50-62.50L187.50 0M375 0L312.50 0L312.50-62.50L375-62.50L375 0M125-62.50L62.50-62.50L62.50-125L125-125L125-62.50M437.50-62.50L375-62.50L375-125L437.50-125L437.50-62.50M125-250L187.50-250L187.50-312.50L125-312.50L125-250M312.50-250L375-250L375-312.50L312.50-312.50L312.50-250M187.50-125L125-125L125-187.50L0-187.50L0-312.50L62.50-312.50L62.50-375L125-375L125-437.50L187.50-437.50L187.50-500L312.50-500L312.50-437.50L375-437.50L375-375L437.50-375L437.50-312.50L500-312.50L500-187.50L375-187.50L375-125L312.50-125L312.50-187.50L187.50-187.50" />
</svg>
