<svg xmlns="http://www.w3.org/2000/svg"
  viewBox="-40 -540 518 580"
  fill="currentColor"
  aria-hidden="true">
  <path d="M125 0L62.50 0L62.50-62.50L125-62.50L125 0M375 0L312.50 0L312.50-62.50L375-62.50L375 0M125-250L187.50-250L187.50-312.50L125-312.50L125-250M250-250L312.50-250L312.50-312.50L250-312.50L250-250M62.50-62.50L0-62.50L0-375L62.50-375L62.50-437.50L375-437.50L375-375L437.50-375L437.50-62.50L375-62.50L375-187.50L312.50-187.50L312.50-125L125-125L125-187.50L62.50-187.50L62.50-62.50M62.50-437.50L0-437.50L0-500L62.50-500L62.50-437.50M437.50-437.50L375-437.50L375-500L437.50-500" />
</svg>
