<svg xmlns="http://www.w3.org/2000/svg"
  viewBox="-64 -864 928 928"
  fill="currentColor"
  aria-hidden="true">
  <path d="M200-400L300-400L300-500L200-500L200-400M500-400L600-400L600-500L500-500L500-400M700-600L700-500L800-500L800-300L600-300L600-200L700-200L700-100L600-100L600 0L500 0L500-100L600-100L600-200L500-200L500-300L300-300L300-200L200-200L200-100L300-100L300 0L200 0L200-100L100-100L100-200L200-200L200-300L0-300L0-500L100-500L100-600L200-600L200-700L300-700L300-800L500-800L500-700L600-700L600-600" />
</svg>
